<svg xmlns="http://www.w3.org/2000/svg" xmlns:xlink="http://www.w3.org/1999/xlink" width="500" zoomAndPan="magnify" viewBox="0 0 375 374.999991" height="500" preserveAspectRatio="xMidYMid meet" version="1.2"><defs><clipPath id="d07b0291b5"><path d="M 0 45.515625 L 375 45.515625 L 375 329.765625 L 0 329.765625 Z M 0 45.515625 "/></clipPath></defs><g id="ac491c98e7"><g clip-rule="nonzero" clip-path="url(#d07b0291b5)"><path style=" stroke:none;fill-rule:nonzero;fill:#cba95c;fill-opacity:1;" d="M 8.898438 208.179688 L 121.929688 321.214844 C 127.421875 326.707031 134.71875 329.742188 142.472656 329.742188 C 150.222656 329.742188 157.519531 326.707031 163.011719 321.214844 C 168.5 315.726562 171.539062 308.425781 171.539062 300.675781 C 171.539062 292.925781 168.5 285.625 163.011719 280.136719 L 99.582031 216.707031 L 345.933594 216.707031 C 361.953125 216.707031 375 203.660156 375 187.640625 C 375 171.621094 361.953125 158.574219 345.933594 158.574219 L 99.582031 158.574219 L 163.011719 95.144531 C 168.5 89.65625 171.539062 82.355469 171.539062 74.605469 C 171.539062 66.855469 168.5 59.554688 163.011719 54.066406 C 157.519531 48.574219 150.222656 45.539062 142.472656 45.539062 C 134.71875 45.539062 127.421875 48.574219 121.929688 54.066406 L 9.089844 166.90625 C 3.535156 172.269531 0.433594 179.566406 0.433594 187.445312 C 0.371094 195.328125 3.34375 202.625 8.898438 208.179688 Z M 8.898438 208.179688 "/></g></g></svg>