<svg xmlns="http://www.w3.org/2000/svg" xmlns:xlink="http://www.w3.org/1999/xlink" width="500" zoomAndPan="magnify" viewBox="0 0 375 374.999991" height="500" preserveAspectRatio="xMidYMid meet" version="1.2"><defs><clipPath id="942e7659d8"><path d="M 23.4375 0 L 351.9375 0 L 351.9375 93 L 23.4375 93 Z M 23.4375 0 "/></clipPath></defs><g id="ca14d31ada"><g clip-rule="nonzero" clip-path="url(#942e7659d8)"><path style=" stroke:none;fill-rule:nonzero;fill:#000000;fill-opacity:1;" d="M 340.207031 45.996094 L 258.082031 45.996094 L 258.082031 11.71875 C 258.082031 5.273438 252.800781 0 246.347656 0 L 129.027344 0 C 122.574219 0 117.292969 5.273438 117.292969 11.71875 L 117.292969 45.996094 L 35.167969 45.996094 C 28.71875 45.996094 23.4375 51.269531 23.4375 57.714844 L 23.4375 81.152344 C 23.4375 87.597656 28.71875 92.871094 35.167969 92.871094 L 340.207031 92.871094 C 346.65625 92.871094 351.9375 87.597656 351.9375 81.152344 L 351.9375 57.714844 C 351.9375 51.269531 346.65625 45.996094 340.207031 45.996094 Z M 340.207031 45.996094 "/></g><path style=" stroke:none;fill-rule:nonzero;fill:#000000;fill-opacity:1;" d="M 75.058594 364.746094 C 75.644531 370.605469 80.632812 375 86.792969 375 L 288.878906 375 C 294.742188 375 299.730469 370.605469 300.609375 364.746094 L 328.765625 117.480469 L 46.902344 117.480469 Z M 234.617188 326.660156 L 255.148438 162.890625 C 256.027344 156.445312 261.894531 152.050781 268.347656 152.636719 C 274.796875 153.515625 279.199219 159.375 278.613281 165.820312 L 258.082031 329.589844 C 257.199219 335.449219 252.214844 339.84375 246.347656 339.84375 C 245.761719 339.84375 245.46875 339.84375 244.882812 339.84375 C 238.429688 338.964844 234.03125 333.105469 234.617188 326.660156 Z M 175.957031 164.355469 C 175.957031 157.910156 181.234375 152.636719 187.6875 152.636719 C 194.140625 152.636719 199.417969 157.910156 199.417969 164.355469 L 199.417969 328.125 C 199.417969 334.570312 194.140625 339.84375 187.6875 339.84375 C 181.234375 339.84375 175.957031 334.570312 175.957031 328.125 Z M 107.027344 152.636719 C 113.480469 151.757812 119.347656 156.445312 120.226562 162.890625 L 140.757812 326.660156 C 141.640625 333.105469 136.945312 338.964844 130.492188 339.84375 C 129.90625 339.84375 129.613281 339.84375 129.027344 339.84375 C 123.160156 339.84375 118.175781 335.449219 117.292969 329.589844 L 96.761719 165.820312 C 96.175781 159.375 100.578125 153.515625 107.027344 152.636719 Z M 107.027344 152.636719 "/></g></svg>