<svg xmlns="http://www.w3.org/2000/svg" xmlns:xlink="http://www.w3.org/1999/xlink" width="500" zoomAndPan="magnify" viewBox="0 0 375 374.999991" height="500" preserveAspectRatio="xMidYMid meet" version="1.2"><defs><clipPath id="6547509751"><path d="M 23.4375 0 L 351.9375 0 L 351.9375 93 L 23.4375 93 Z M 23.4375 0 "/></clipPath></defs><g id="8257be8ee9"><g clip-rule="nonzero" clip-path="url(#6547509751)"><path style=" stroke:none;fill-rule:nonzero;fill:#cba95c;fill-opacity:1;" d="M 339.84375 45.996094 L 257.8125 45.996094 L 257.8125 11.71875 C 257.8125 5.273438 252.539062 0 246.09375 0 L 128.90625 0 C 122.460938 0 117.1875 5.273438 117.1875 11.71875 L 117.1875 45.996094 L 35.15625 45.996094 C 28.710938 45.996094 23.4375 51.269531 23.4375 57.714844 L 23.4375 81.152344 C 23.4375 87.597656 28.710938 92.871094 35.15625 92.871094 L 339.84375 92.871094 C 346.289062 92.871094 351.5625 87.597656 351.5625 81.152344 L 351.5625 57.714844 C 351.5625 51.269531 346.289062 45.996094 339.84375 45.996094 Z M 339.84375 45.996094 "/></g><path style=" stroke:none;fill-rule:nonzero;fill:#cba95c;fill-opacity:1;" d="M 75 364.746094 C 75.585938 370.605469 80.566406 375 86.71875 375 L 288.574219 375 C 294.433594 375 299.414062 370.605469 300.292969 364.746094 L 328.417969 117.480469 L 46.875 117.480469 Z M 234.375 326.660156 L 254.882812 162.890625 C 255.761719 156.445312 261.621094 152.050781 268.066406 152.636719 C 274.511719 153.515625 278.90625 159.375 278.320312 165.820312 L 257.8125 329.589844 C 256.933594 335.449219 251.953125 339.84375 246.09375 339.84375 C 245.507812 339.84375 245.214844 339.84375 244.628906 339.84375 C 238.183594 338.964844 233.789062 333.105469 234.375 326.660156 Z M 175.78125 164.355469 C 175.78125 157.910156 181.054688 152.636719 187.5 152.636719 C 193.945312 152.636719 199.21875 157.910156 199.21875 164.355469 L 199.21875 328.125 C 199.21875 334.570312 193.945312 339.84375 187.5 339.84375 C 181.054688 339.84375 175.78125 334.570312 175.78125 328.125 Z M 106.933594 152.636719 C 113.378906 151.757812 119.238281 156.445312 120.117188 162.890625 L 140.625 326.660156 C 141.503906 333.105469 136.816406 338.964844 130.371094 339.84375 C 129.785156 339.84375 129.492188 339.84375 128.90625 339.84375 C 123.046875 339.84375 118.066406 335.449219 117.1875 329.589844 L 96.679688 165.820312 C 96.09375 159.375 100.488281 153.515625 106.933594 152.636719 Z M 106.933594 152.636719 "/></g></svg>