<svg xmlns="http://www.w3.org/2000/svg" xmlns:xlink="http://www.w3.org/1999/xlink" width="500" zoomAndPan="magnify" viewBox="0 0 375 374.999991" height="500" preserveAspectRatio="xMidYMid meet" version="1.2"><defs><clipPath id="29eaaf888e"><path d="M 0 121 L 75 121 L 75 368.578125 L 0 368.578125 Z M 0 121 "/></clipPath><clipPath id="daacaf46b5"><path d="M 99 6.328125 L 373 6.328125 L 373 368.578125 L 99 368.578125 Z M 99 6.328125 "/></clipPath></defs><g id="8b360a3636"><g clip-rule="nonzero" clip-path="url(#29eaaf888e)"><path style=" stroke:none;fill-rule:nonzero;fill:#000000;fill-opacity:1;" d="M 13.128906 121.308594 L 62.597656 121.308594 C 63.410156 121.308594 64.210938 121.386719 65.007812 121.546875 C 65.804688 121.703125 66.578125 121.9375 67.328125 122.25 C 68.078125 122.558594 68.792969 122.941406 69.46875 123.390625 C 70.140625 123.84375 70.765625 124.355469 71.339844 124.929688 C 71.914062 125.503906 72.429688 126.128906 72.878906 126.804688 C 73.332031 127.476562 73.710938 128.191406 74.023438 128.941406 C 74.332031 129.691406 74.566406 130.464844 74.726562 131.261719 C 74.882812 132.054688 74.964844 132.859375 74.964844 133.671875 L 74.964844 356.214844 C 74.964844 357.027344 74.882812 357.832031 74.726562 358.625 C 74.566406 359.421875 74.332031 360.195312 74.023438 360.945312 C 73.710938 361.695312 73.332031 362.410156 72.878906 363.082031 C 72.429688 363.757812 71.914062 364.382812 71.339844 364.957031 C 70.765625 365.53125 70.140625 366.042969 69.46875 366.496094 C 68.792969 366.945312 68.078125 367.328125 67.328125 367.636719 C 66.578125 367.949219 65.804688 368.183594 65.007812 368.339844 C 64.210938 368.5 63.410156 368.578125 62.597656 368.578125 L 13.128906 368.578125 C 12.316406 368.578125 11.511719 368.5 10.71875 368.339844 C 9.921875 368.183594 9.148438 367.949219 8.398438 367.636719 C 7.648438 367.328125 6.933594 366.945312 6.257812 366.496094 C 5.585938 366.042969 4.960938 365.53125 4.386719 364.957031 C 3.8125 364.382812 3.296875 363.757812 2.847656 363.082031 C 2.394531 362.410156 2.015625 361.695312 1.703125 360.945312 C 1.394531 360.195312 1.160156 359.421875 1 358.625 C 0.84375 357.832031 0.761719 357.027344 0.761719 356.214844 L 0.761719 133.671875 C 0.761719 132.859375 0.84375 132.054688 1 131.261719 C 1.160156 130.464844 1.394531 129.691406 1.703125 128.941406 C 2.015625 128.191406 2.394531 127.476562 2.847656 126.804688 C 3.296875 126.128906 3.8125 125.503906 4.386719 124.929688 C 4.960938 124.355469 5.585938 123.84375 6.257812 123.390625 C 6.933594 122.941406 7.648438 122.558594 8.398438 122.25 C 9.148438 121.9375 9.921875 121.703125 10.71875 121.546875 C 11.511719 121.386719 12.316406 121.308594 13.128906 121.308594 Z M 13.128906 121.308594 "/></g><g clip-rule="nonzero" clip-path="url(#daacaf46b5)"><path style=" stroke:none;fill-rule:nonzero;fill:#000000;fill-opacity:1;" d="M 361.722656 153.761719 C 360.53125 152.199219 359.253906 150.710938 357.890625 149.296875 C 356.53125 147.878906 355.089844 146.546875 353.574219 145.300781 C 352.058594 144.050781 350.472656 142.894531 348.824219 141.828125 C 347.171875 140.761719 345.464844 139.792969 343.703125 138.925781 C 341.941406 138.058594 340.136719 137.292969 338.285156 136.632812 C 336.433594 135.972656 334.550781 135.421875 332.636719 134.980469 C 330.722656 134.539062 328.789062 134.207031 326.835938 133.988281 C 324.882812 133.769531 322.925781 133.664062 320.960938 133.671875 L 255.738281 133.671875 L 281.636719 81.894531 C 282.308594 80.550781 282.929688 79.183594 283.496094 77.789062 C 284.0625 76.398438 284.574219 74.988281 285.03125 73.554688 C 285.484375 72.125 285.886719 70.675781 286.230469 69.210938 C 286.570312 67.75 286.855469 66.273438 287.085938 64.789062 C 287.3125 63.304688 287.480469 61.8125 287.59375 60.3125 C 287.703125 58.816406 287.753906 57.3125 287.75 55.8125 C 287.742188 54.308594 287.675781 52.808594 287.550781 51.3125 C 287.429688 49.8125 287.246094 48.324219 287.003906 46.839844 C 286.765625 45.355469 286.464844 43.882812 286.109375 42.425781 C 285.753906 40.964844 285.34375 39.519531 284.875 38.09375 C 284.402344 36.664062 283.878906 35.257812 283.300781 33.871094 C 282.722656 32.484375 282.089844 31.121094 281.40625 29.785156 C 280.71875 28.445312 279.980469 27.136719 279.195312 25.859375 C 278.40625 24.578125 277.570312 23.332031 276.683594 22.117188 C 275.796875 20.902344 274.867188 19.726562 273.890625 18.582031 C 272.910156 17.441406 271.890625 16.339844 270.828125 15.277344 C 269.308594 13.820312 267.664062 12.519531 265.890625 11.378906 C 264.121094 10.238281 262.257812 9.28125 260.300781 8.5 C 258.34375 7.71875 256.332031 7.136719 254.261719 6.746094 C 252.191406 6.355469 250.105469 6.167969 247.996094 6.179688 C 245.890625 6.242188 243.8125 6.515625 241.761719 7 C 239.710938 7.484375 237.726562 8.167969 235.816406 9.054688 C 233.902344 9.941406 232.097656 11.007812 230.402344 12.257812 C 228.703125 13.507812 227.148438 14.914062 225.738281 16.480469 L 164.609375 84.304688 C 155.191406 94.738281 145.042969 104.402344 134.164062 113.300781 C 123.28125 122.195312 111.792969 130.222656 99.695312 137.382812 L 99.695312 344.433594 L 116.714844 357.6875 C 119.363281 359.453125 122.125 361.019531 125.007812 362.378906 C 127.886719 363.738281 130.851562 364.878906 133.898438 365.800781 C 136.945312 366.726562 140.046875 367.417969 143.195312 367.882812 C 146.347656 368.347656 149.515625 368.582031 152.699219 368.578125 L 265.410156 368.578125 C 267.539062 368.578125 269.660156 368.492188 271.78125 368.316406 C 273.902344 368.140625 276.011719 367.882812 278.109375 367.535156 C 280.207031 367.1875 282.289062 366.753906 284.351562 366.238281 C 286.417969 365.71875 288.457031 365.117188 290.46875 364.433594 C 292.484375 363.75 294.464844 362.984375 296.417969 362.136719 C 298.371094 361.289062 300.28125 360.367188 302.160156 359.363281 C 304.035156 358.359375 305.867188 357.28125 307.652344 356.125 C 309.441406 354.972656 311.175781 353.75 312.863281 352.453125 C 314.550781 351.15625 316.183594 349.792969 317.757812 348.363281 C 319.332031 346.9375 320.847656 345.445312 322.300781 343.890625 C 323.753906 342.335938 325.140625 340.726562 326.460938 339.0625 C 327.78125 337.394531 329.03125 335.675781 330.214844 333.90625 C 331.394531 332.136719 332.5 330.324219 333.53125 328.460938 C 334.5625 326.601562 335.515625 324.703125 336.394531 322.765625 C 337.269531 320.828125 338.066406 318.855469 338.777344 316.855469 C 339.492188 314.851562 340.125 312.820312 340.671875 310.765625 L 370.675781 198.257812 C 371.183594 196.363281 371.582031 194.445312 371.871094 192.503906 C 372.160156 190.566406 372.335938 188.613281 372.398438 186.652344 C 372.460938 184.691406 372.410156 182.734375 372.246094 180.777344 C 372.085938 178.824219 371.808594 176.882812 371.421875 174.960938 C 371.035156 173.035156 370.539062 171.140625 369.933594 169.277344 C 369.328125 167.410156 368.617188 165.582031 367.800781 163.800781 C 366.984375 162.015625 366.066406 160.285156 365.050781 158.605469 C 364.035156 156.925781 362.925781 155.3125 361.722656 153.761719 Z M 361.722656 153.761719 "/></g></g></svg>