<svg xmlns="http://www.w3.org/2000/svg" xmlns:xlink="http://www.w3.org/1999/xlink" width="500" zoomAndPan="magnify" viewBox="0 0 375 374.999991" height="500" preserveAspectRatio="xMidYMid meet" version="1.2"><defs><clipPath id="4e887fa94a"><path d="M 0 121 L 75 121 L 75 368.578125 L 0 368.578125 Z M 0 121 "/></clipPath><clipPath id="31c383666d"><path d="M 99 6.328125 L 373 6.328125 L 373 368.578125 L 99 368.578125 Z M 99 6.328125 "/></clipPath></defs><g id="4e2b4faaa3"><g clip-rule="nonzero" clip-path="url(#4e887fa94a)"><path style=" stroke:none;fill-rule:nonzero;fill:#5c4e2e;fill-opacity:1;" d="M 13.125 121.308594 L 62.582031 121.308594 C 63.390625 121.308594 64.195312 121.386719 64.992188 121.546875 C 65.789062 121.703125 66.5625 121.9375 67.3125 122.25 C 68.0625 122.558594 68.773438 122.941406 69.449219 123.390625 C 70.125 123.84375 70.75 124.355469 71.324219 124.929688 C 71.898438 125.503906 72.410156 126.128906 72.859375 126.804688 C 73.3125 127.476562 73.691406 128.191406 74.003906 128.941406 C 74.3125 129.691406 74.546875 130.464844 74.707031 131.261719 C 74.863281 132.054688 74.945312 132.859375 74.945312 133.671875 L 74.945312 356.214844 C 74.945312 357.027344 74.863281 357.832031 74.707031 358.625 C 74.546875 359.421875 74.3125 360.195312 74.003906 360.945312 C 73.691406 361.695312 73.3125 362.410156 72.859375 363.082031 C 72.410156 363.757812 71.898438 364.382812 71.324219 364.957031 C 70.75 365.53125 70.125 366.042969 69.449219 366.496094 C 68.773438 366.945312 68.0625 367.328125 67.3125 367.636719 C 66.5625 367.949219 65.789062 368.183594 64.992188 368.339844 C 64.195312 368.5 63.390625 368.578125 62.582031 368.578125 L 13.125 368.578125 C 12.316406 368.578125 11.511719 368.5 10.714844 368.339844 C 9.917969 368.183594 9.144531 367.949219 8.394531 367.636719 C 7.644531 367.328125 6.933594 366.945312 6.257812 366.496094 C 5.582031 366.042969 4.957031 365.53125 4.382812 364.957031 C 3.808594 364.382812 3.296875 363.757812 2.847656 363.082031 C 2.394531 362.410156 2.015625 361.695312 1.703125 360.945312 C 1.394531 360.195312 1.160156 359.421875 1 358.625 C 0.84375 357.832031 0.761719 357.027344 0.761719 356.214844 L 0.761719 133.671875 C 0.761719 132.859375 0.84375 132.054688 1 131.261719 C 1.160156 130.464844 1.394531 129.691406 1.703125 128.941406 C 2.015625 128.191406 2.394531 127.476562 2.847656 126.804688 C 3.296875 126.128906 3.808594 125.503906 4.382812 124.929688 C 4.957031 124.355469 5.582031 123.84375 6.257812 123.390625 C 6.933594 122.941406 7.644531 122.558594 8.394531 122.25 C 9.144531 121.9375 9.917969 121.703125 10.714844 121.546875 C 11.511719 121.386719 12.316406 121.308594 13.125 121.308594 Z M 13.125 121.308594 "/></g><g clip-rule="nonzero" clip-path="url(#31c383666d)"><path style=" stroke:none;fill-rule:nonzero;fill:#5c4e2e;fill-opacity:1;" d="M 361.628906 153.761719 C 360.4375 152.199219 359.160156 150.710938 357.800781 149.296875 C 356.4375 147.878906 355 146.546875 353.480469 145.300781 C 351.964844 144.050781 350.382812 142.894531 348.734375 141.828125 C 347.082031 140.761719 345.378906 139.792969 343.617188 138.925781 C 341.851562 138.058594 340.046875 137.292969 338.199219 136.632812 C 336.347656 135.972656 334.464844 135.421875 332.550781 134.980469 C 330.636719 134.539062 328.703125 134.207031 326.753906 133.988281 C 324.800781 133.769531 322.84375 133.664062 320.878906 133.671875 L 255.671875 133.671875 L 281.5625 81.894531 C 282.234375 80.550781 282.855469 79.183594 283.421875 77.789062 C 283.988281 76.398438 284.5 74.988281 284.957031 73.554688 C 285.414062 72.125 285.8125 70.675781 286.15625 69.210938 C 286.496094 67.75 286.78125 66.273438 287.011719 64.789062 C 287.238281 63.304688 287.40625 61.8125 287.515625 60.3125 C 287.628906 58.816406 287.679688 57.3125 287.671875 55.8125 C 287.667969 54.308594 287.601562 52.808594 287.476562 51.3125 C 287.355469 49.8125 287.171875 48.324219 286.929688 46.839844 C 286.691406 45.355469 286.390625 43.882812 286.035156 42.425781 C 285.679688 40.964844 285.269531 39.519531 284.800781 38.09375 C 284.332031 36.664062 283.808594 35.257812 283.226562 33.871094 C 282.648438 32.484375 282.015625 31.121094 281.332031 29.785156 C 280.644531 28.445312 279.910156 27.136719 279.121094 25.859375 C 278.335938 24.578125 277.496094 23.332031 276.613281 22.117188 C 275.726562 20.902344 274.796875 19.726562 273.816406 18.582031 C 272.839844 17.441406 271.820312 16.339844 270.757812 15.277344 C 269.238281 13.820312 267.59375 12.519531 265.824219 11.378906 C 264.054688 10.238281 262.191406 9.28125 260.234375 8.5 C 258.277344 7.71875 256.265625 7.136719 254.195312 6.746094 C 252.125 6.355469 250.039062 6.167969 247.933594 6.179688 C 245.828125 6.242188 243.75 6.515625 241.699219 7 C 239.648438 7.484375 237.667969 8.167969 235.753906 9.054688 C 233.839844 9.941406 232.039062 11.007812 230.339844 12.257812 C 228.644531 13.507812 227.089844 14.914062 225.679688 16.480469 L 164.566406 84.304688 C 155.152344 94.738281 145.003906 104.402344 134.128906 113.300781 C 123.25 122.195312 111.765625 130.222656 99.671875 137.382812 L 99.671875 344.433594 L 116.683594 357.6875 C 119.332031 359.453125 122.09375 361.019531 124.972656 362.378906 C 127.851562 363.738281 130.816406 364.878906 133.863281 365.800781 C 136.910156 366.726562 140.007812 367.417969 143.160156 367.882812 C 146.308594 368.347656 149.476562 368.582031 152.660156 368.578125 L 265.339844 368.578125 C 267.46875 368.578125 269.589844 368.492188 271.710938 368.316406 C 273.832031 368.140625 275.941406 367.882812 278.039062 367.535156 C 280.136719 367.1875 282.214844 366.753906 284.28125 366.238281 C 286.34375 365.71875 288.378906 365.117188 290.394531 364.433594 C 292.40625 363.75 294.390625 362.984375 296.339844 362.136719 C 298.292969 361.289062 300.207031 360.367188 302.082031 359.363281 C 303.957031 358.359375 305.785156 357.28125 307.574219 356.125 C 309.359375 354.972656 311.097656 353.75 312.78125 352.453125 C 314.46875 351.15625 316.101562 349.792969 317.675781 348.363281 C 319.25 346.9375 320.761719 345.445312 322.214844 343.890625 C 323.667969 342.335938 325.054688 340.726562 326.375 339.0625 C 327.699219 337.394531 328.949219 335.675781 330.128906 333.90625 C 331.308594 332.136719 332.414062 330.324219 333.445312 328.460938 C 334.476562 326.601562 335.429688 324.703125 336.304688 322.765625 C 337.183594 320.828125 337.976562 318.855469 338.691406 316.855469 C 339.40625 314.851562 340.039062 312.820312 340.585938 310.765625 L 370.578125 198.257812 C 371.089844 196.363281 371.488281 194.445312 371.777344 192.503906 C 372.0625 190.566406 372.238281 188.613281 372.300781 186.652344 C 372.363281 184.691406 372.316406 182.734375 372.152344 180.777344 C 371.988281 178.824219 371.714844 176.882812 371.328125 174.960938 C 370.941406 173.035156 370.441406 171.140625 369.835938 169.277344 C 369.230469 167.410156 368.519531 165.582031 367.703125 163.800781 C 366.886719 162.015625 365.972656 160.285156 364.957031 158.605469 C 363.941406 156.925781 362.832031 155.3125 361.628906 153.761719 Z M 361.628906 153.761719 "/></g></g></svg>