<svg xmlns="http://www.w3.org/2000/svg" xmlns:xlink="http://www.w3.org/1999/xlink" width="500" zoomAndPan="magnify" viewBox="0 0 375 374.999991" height="500" preserveAspectRatio="xMidYMid meet" version="1.2"><defs><clipPath id="1ea4ce1513"><path d="M 37.5 0 L 337.5 0 L 337.5 375 L 37.5 375 Z M 37.5 0 "/></clipPath></defs><g id="7425e18f18"><g clip-rule="nonzero" clip-path="url(#1ea4ce1513)"><path style=" stroke:none;fill-rule:nonzero;fill:#cba95c;fill-opacity:1;" d="M 187.5 0 C 172.5 0 159.375 13.125 159.375 28.125 L 159.375 41.234375 C 111.019531 53.824219 75 97.84375 75 150 L 75 262.5 L 46.875 284.984375 C 41.25 288.734375 37.5 292.5 37.5 300 C 37.5 311.25 45 318.75 56.25 318.75 L 318.75 318.75 C 330 318.75 337.5 311.25 337.5 300 C 337.5 292.5 333.75 288.734375 328.125 284.984375 L 300 262.5 L 300 150 C 300 97.84375 263.980469 53.824219 215.625 41.234375 L 215.625 28.125 C 215.625 13.125 202.5 0 187.5 0 Z M 150 337.5 C 150 358.125 166.875 375 187.5 375 C 208.125 375 225 358.125 225 337.5 Z M 150 337.5 "/></g></g></svg>