<svg xmlns="http://www.w3.org/2000/svg" xmlns:xlink="http://www.w3.org/1999/xlink" width="500" zoomAndPan="magnify" viewBox="0 0 375 374.999991" height="500" preserveAspectRatio="xMidYMid meet" version="1.2"><g id="44a693751b"><path style=" stroke:none;fill-rule:nonzero;fill:#000000;fill-opacity:1;" d="M 307.269531 0 L 67.824219 0 C 66.949219 0 66.085938 0.0859375 65.230469 0.253906 C 64.371094 0.425781 63.539062 0.679688 62.734375 1.011719 C 61.925781 1.347656 61.160156 1.757812 60.433594 2.242188 C 59.707031 2.726562 59.035156 3.277344 58.417969 3.894531 C 57.800781 4.511719 57.25 5.183594 56.761719 5.910156 C 56.277344 6.636719 55.867188 7.402344 55.535156 8.210938 C 55.199219 9.015625 54.949219 9.847656 54.777344 10.703125 C 54.605469 11.558594 54.523438 12.425781 54.523438 13.296875 L 54.523438 345.746094 C 54.496094 347.023438 54.5625 348.296875 54.722656 349.566406 C 54.878906 350.832031 55.128906 352.085938 55.46875 353.316406 C 55.808594 354.550781 56.230469 355.753906 56.746094 356.925781 C 57.257812 358.09375 57.851562 359.222656 58.527344 360.308594 C 59.203125 361.394531 59.949219 362.425781 60.773438 363.40625 C 61.597656 364.382812 62.488281 365.296875 63.445312 366.144531 C 64.402344 366.996094 65.414062 367.773438 66.480469 368.476562 C 67.546875 369.179688 68.660156 369.800781 69.820312 370.347656 C 70.933594 370.863281 72.082031 371.304688 73.257812 371.664062 C 74.433594 372.023438 75.632812 372.296875 76.847656 372.492188 C 78.0625 372.6875 79.285156 372.792969 80.515625 372.820312 C 81.746094 372.84375 82.972656 372.78125 84.195312 372.636719 C 85.414062 372.488281 86.621094 372.257812 87.8125 371.945312 C 89 371.632812 90.164062 371.238281 91.300781 370.765625 C 92.433594 370.289062 93.53125 369.738281 94.589844 369.113281 C 95.648438 368.484375 96.660156 367.789062 97.621094 367.019531 L 98.953125 365.824219 L 180.363281 279.253906 C 180.832031 278.78125 181.34375 278.355469 181.898438 277.984375 C 182.453125 277.609375 183.039062 277.296875 183.65625 277.039062 C 184.273438 276.78125 184.90625 276.589844 185.5625 276.457031 C 186.21875 276.324219 186.878906 276.261719 187.546875 276.261719 C 188.214844 276.261719 188.875 276.324219 189.53125 276.457031 C 190.1875 276.589844 190.820312 276.78125 191.4375 277.039062 C 192.054688 277.296875 192.640625 277.609375 193.195312 277.984375 C 193.75 278.355469 194.261719 278.78125 194.730469 279.253906 L 276.140625 365.027344 L 277.472656 366.222656 C 279.792969 368.148438 282.371094 369.636719 285.199219 370.683594 C 288.027344 371.734375 290.949219 372.285156 293.96875 372.339844 C 294.839844 372.339844 295.707031 372.296875 296.574219 372.210938 C 297.441406 372.125 298.304688 372 299.15625 371.828125 C 300.011719 371.660156 300.855469 371.449219 301.691406 371.195312 C 302.523438 370.941406 303.34375 370.648438 304.148438 370.316406 C 304.953125 369.984375 305.738281 369.609375 306.507812 369.199219 C 307.277344 368.789062 308.023438 368.34375 308.746094 367.859375 C 309.472656 367.375 310.171875 366.855469 310.84375 366.304688 C 311.519531 365.75 312.164062 365.167969 312.78125 364.550781 C 313.394531 363.933594 313.980469 363.289062 314.53125 362.617188 C 315.085938 361.945312 315.605469 361.246094 316.089844 360.519531 C 316.574219 359.796875 317.019531 359.050781 317.429688 358.28125 C 317.839844 357.511719 318.214844 356.726562 318.546875 355.921875 C 318.878906 355.117188 319.171875 354.296875 319.425781 353.464844 C 319.679688 352.632812 319.890625 351.789062 320.0625 350.933594 C 320.230469 350.078125 320.359375 349.21875 320.445312 348.351562 C 320.53125 347.484375 320.570312 346.617188 320.570312 345.746094 L 320.570312 13.296875 C 320.570312 12.425781 320.488281 11.558594 320.316406 10.703125 C 320.144531 9.847656 319.894531 9.015625 319.558594 8.210938 C 319.226562 7.402344 318.816406 6.636719 318.332031 5.910156 C 317.84375 5.183594 317.292969 4.511719 316.675781 3.894531 C 316.058594 3.277344 315.386719 2.726562 314.660156 2.242188 C 313.933594 1.757812 313.167969 1.347656 312.359375 1.011719 C 311.554688 0.679688 310.722656 0.425781 309.863281 0.253906 C 309.007812 0.0859375 308.144531 0 307.269531 0 Z M 307.269531 0 "/></g></svg>