<svg xmlns="http://www.w3.org/2000/svg" xmlns:xlink="http://www.w3.org/1999/xlink" width="500" zoomAndPan="magnify" viewBox="0 0 375 374.999991" height="500" preserveAspectRatio="xMidYMid meet" version="1.2"><g id="eaa3c70f60"><path style=" stroke:none;fill-rule:nonzero;fill:#05a814;fill-opacity:1;" d="M 307.179688 0 L 67.820312 0 C 66.945312 0 66.082031 0.0859375 65.226562 0.253906 C 64.367188 0.425781 63.535156 0.679688 62.730469 1.011719 C 61.921875 1.347656 61.15625 1.757812 60.429688 2.242188 C 59.707031 2.726562 59.035156 3.277344 58.417969 3.894531 C 57.796875 4.511719 57.246094 5.183594 56.761719 5.910156 C 56.277344 6.636719 55.867188 7.402344 55.535156 8.210938 C 55.199219 9.015625 54.945312 9.847656 54.777344 10.703125 C 54.605469 11.558594 54.519531 12.425781 54.519531 13.296875 L 54.519531 345.746094 C 54.496094 347.023438 54.5625 348.296875 54.722656 349.566406 C 54.878906 350.832031 55.128906 352.085938 55.46875 353.316406 C 55.804688 354.550781 56.230469 355.753906 56.742188 356.925781 C 57.257812 358.09375 57.847656 359.222656 58.523438 360.308594 C 59.199219 361.394531 59.949219 362.425781 60.773438 363.40625 C 61.597656 364.382812 62.484375 365.296875 63.441406 366.144531 C 64.398438 366.996094 65.410156 367.773438 66.476562 368.476562 C 67.542969 369.179688 68.65625 369.800781 69.8125 370.347656 C 70.929688 370.863281 72.074219 371.304688 73.25 371.664062 C 74.429688 372.023438 75.625 372.296875 76.839844 372.492188 C 78.054688 372.6875 79.277344 372.792969 80.503906 372.820312 C 81.734375 372.84375 82.960938 372.78125 84.183594 372.636719 C 85.402344 372.488281 86.609375 372.257812 87.800781 371.945312 C 88.988281 371.632812 90.152344 371.238281 91.285156 370.765625 C 92.421875 370.289062 93.515625 369.738281 94.574219 369.113281 C 95.632812 368.484375 96.644531 367.789062 97.605469 367.019531 L 98.9375 365.824219 L 180.320312 279.253906 C 180.789062 278.78125 181.300781 278.355469 181.855469 277.984375 C 182.410156 277.609375 182.992188 277.296875 183.609375 277.039062 C 184.226562 276.78125 184.863281 276.589844 185.515625 276.457031 C 186.171875 276.324219 186.832031 276.261719 187.5 276.261719 C 188.167969 276.261719 188.828125 276.324219 189.484375 276.457031 C 190.136719 276.589844 190.773438 276.78125 191.390625 277.039062 C 192.007812 277.296875 192.589844 277.609375 193.144531 277.984375 C 193.699219 278.355469 194.210938 278.78125 194.679688 279.253906 L 276.0625 365.027344 L 277.394531 366.222656 C 279.714844 368.148438 282.289062 369.636719 285.117188 370.683594 C 287.945312 371.734375 290.867188 372.285156 293.882812 372.339844 C 294.753906 372.339844 295.621094 372.296875 296.488281 372.210938 C 297.355469 372.125 298.21875 372 299.070312 371.828125 C 299.925781 371.660156 300.769531 371.449219 301.601562 371.195312 C 302.4375 370.941406 303.257812 370.648438 304.0625 370.316406 C 304.867188 369.984375 305.652344 369.609375 306.421875 369.199219 C 307.1875 368.789062 307.933594 368.34375 308.660156 367.859375 C 309.382812 367.375 310.082031 366.855469 310.753906 366.304688 C 311.429688 365.75 312.074219 365.167969 312.6875 364.550781 C 313.304688 363.933594 313.890625 363.289062 314.441406 362.617188 C 314.996094 361.945312 315.511719 361.246094 315.996094 360.519531 C 316.480469 359.796875 316.925781 359.050781 317.339844 358.28125 C 317.75 357.511719 318.121094 356.726562 318.453125 355.921875 C 318.789062 355.117188 319.082031 354.296875 319.332031 353.464844 C 319.585938 352.632812 319.796875 351.789062 319.96875 350.933594 C 320.136719 350.078125 320.265625 349.21875 320.351562 348.351562 C 320.4375 347.484375 320.480469 346.617188 320.480469 345.746094 L 320.480469 13.296875 C 320.480469 12.425781 320.394531 11.558594 320.222656 10.703125 C 320.054688 9.847656 319.800781 9.015625 319.464844 8.210938 C 319.132812 7.402344 318.722656 6.636719 318.238281 5.910156 C 317.753906 5.183594 317.203125 4.511719 316.582031 3.894531 C 315.964844 3.277344 315.292969 2.726562 314.570312 2.242188 C 313.84375 1.757812 313.078125 1.347656 312.269531 1.011719 C 311.464844 0.679688 310.632812 0.425781 309.773438 0.253906 C 308.917969 0.0859375 308.054688 0 307.179688 0 Z M 307.179688 0 "/></g></svg>