<svg xmlns="http://www.w3.org/2000/svg" xmlns:xlink="http://www.w3.org/1999/xlink" width="500" zoomAndPan="magnify" viewBox="0 0 375 374.999991" height="500" preserveAspectRatio="xMidYMid meet" version="1.2"><g id="61804c489c"><path style=" stroke:none;fill-rule:nonzero;fill:#000000;fill-opacity:1;" d="M 20.832031 0 L 312.5 0 L 368.894531 56.394531 C 369.863281 57.363281 370.726562 58.414062 371.488281 59.550781 C 372.246094 60.6875 372.890625 61.890625 373.414062 63.152344 C 373.9375 64.417969 374.332031 65.71875 374.597656 67.0625 C 374.867188 68.402344 375 69.757812 375 71.125 L 375 354.167969 C 375 354.847656 374.964844 355.53125 374.898438 356.207031 C 374.832031 356.886719 374.734375 357.5625 374.597656 358.230469 C 374.464844 358.898438 374.300781 359.5625 374.101562 360.214844 C 373.90625 360.867188 373.675781 361.507812 373.414062 362.140625 C 373.152344 362.769531 372.863281 363.386719 372.539062 363.988281 C 372.21875 364.589844 371.867188 365.171875 371.488281 365.742188 C 371.109375 366.308594 370.703125 366.855469 370.269531 367.382812 C 369.839844 367.910156 369.378906 368.414062 368.898438 368.898438 C 368.414062 369.378906 367.910156 369.839844 367.382812 370.269531 C 366.855469 370.703125 366.308594 371.109375 365.742188 371.488281 C 365.171875 371.867188 364.589844 372.21875 363.988281 372.539062 C 363.386719 372.863281 362.769531 373.152344 362.140625 373.414062 C 361.507812 373.675781 360.867188 373.90625 360.214844 374.101562 C 359.5625 374.300781 358.898438 374.464844 358.230469 374.597656 C 357.5625 374.734375 356.886719 374.832031 356.207031 374.898438 C 355.53125 374.964844 354.847656 375 354.167969 375 L 20.832031 375 C 20.152344 375 19.46875 374.964844 18.792969 374.898438 C 18.113281 374.832031 17.4375 374.734375 16.769531 374.597656 C 16.101562 374.464844 15.4375 374.300781 14.785156 374.101562 C 14.132812 373.90625 13.492188 373.675781 12.859375 373.414062 C 12.230469 373.152344 11.613281 372.863281 11.011719 372.539062 C 10.410156 372.21875 9.828125 371.867188 9.257812 371.488281 C 8.691406 371.109375 8.144531 370.703125 7.617188 370.269531 C 7.089844 369.839844 6.585938 369.378906 6.101562 368.898438 C 5.621094 368.414062 5.160156 367.910156 4.730469 367.382812 C 4.296875 366.855469 3.890625 366.308594 3.511719 365.742188 C 3.132812 365.171875 2.78125 364.589844 2.460938 363.988281 C 2.136719 363.386719 1.847656 362.769531 1.585938 362.140625 C 1.324219 361.507812 1.09375 360.867188 0.898438 360.214844 C 0.699219 359.5625 0.535156 358.898438 0.398438 358.230469 C 0.265625 357.5625 0.167969 356.886719 0.101562 356.207031 C 0.0351562 355.53125 0 354.847656 0 354.167969 L 0 20.832031 C 0 20.152344 0.0351562 19.46875 0.101562 18.792969 C 0.167969 18.113281 0.265625 17.4375 0.398438 16.769531 C 0.535156 16.101562 0.699219 15.4375 0.898438 14.785156 C 1.09375 14.132812 1.324219 13.492188 1.585938 12.859375 C 1.847656 12.230469 2.136719 11.613281 2.460938 11.011719 C 2.78125 10.410156 3.132812 9.828125 3.511719 9.257812 C 3.890625 8.691406 4.296875 8.144531 4.730469 7.617188 C 5.160156 7.089844 5.621094 6.585938 6.101562 6.101562 C 6.585938 5.621094 7.089844 5.160156 7.617188 4.730469 C 8.144531 4.296875 8.691406 3.890625 9.257812 3.511719 C 9.828125 3.132812 10.410156 2.78125 11.011719 2.460938 C 11.613281 2.136719 12.230469 1.847656 12.859375 1.585938 C 13.492188 1.324219 14.132812 1.09375 14.785156 0.898438 C 15.4375 0.699219 16.101562 0.535156 16.769531 0.398438 C 17.4375 0.265625 18.113281 0.167969 18.792969 0.101562 C 19.46875 0.0351562 20.152344 0 20.832031 0 Z M 83.332031 20.832031 L 83.332031 125 L 270.832031 125 L 270.832031 20.832031 Z M 62.5 187.5 L 62.5 333.332031 L 312.5 333.332031 L 312.5 187.5 Z M 208.332031 41.667969 L 250 41.667969 L 250 104.167969 L 208.332031 104.167969 Z M 208.332031 41.667969 "/></g></svg>