<svg xmlns="http://www.w3.org/2000/svg" xmlns:xlink="http://www.w3.org/1999/xlink" width="500" zoomAndPan="magnify" viewBox="0 0 375 374.999991" height="500" preserveAspectRatio="xMidYMid meet" version="1.2"><g id="d806ad5732"><path style=" stroke:none;fill-rule:nonzero;fill:#ffffff;fill-opacity:1;" d="M 187.5 111.925781 L 187.5 263.238281 C 288.273438 263.140625 288.273438 111.828125 187.5 111.925781 Z M 189.929688 103.9375 C 235.175781 105.269531 271.164062 142.324219 271.164062 187.566406 C 271.996094 299.960938 102.972656 299.960938 103.804688 187.566406 C 103.804688 140.390625 142.789062 102.539062 189.929688 103.9375 "/><path style=" stroke:none;fill-rule:nonzero;fill:#ffffff;fill-opacity:1;" d="M 194.691406 122.113281 L 194.691406 253.050781 C 213.203125 251.054688 229.113281 245.695312 238.804688 234.773438 C 250.089844 222.058594 255.882812 204.84375 255.882812 187.535156 C 255.882812 170.222656 250.089844 153.007812 238.804688 140.324219 C 229.113281 129.40625 213.203125 124.078125 194.691406 122.113281 Z M 180.308594 114.722656 C 142.15625 118.953125 111.027344 148.050781 111.027344 187.601562 L 111.027344 187.632812 C 110.828125 213.933594 120.285156 232.710938 134.5 245.429688 C 146.785156 256.414062 163.628906 260.542969 180.308594 262.074219 Z M 190.164062 96.714844 C 239.203125 98.144531 278.355469 138.460938 278.386719 187.535156 C 278.585938 217.429688 267.265625 240.765625 250.054688 256.148438 C 232.84375 271.527344 210.136719 279.050781 187.5 279.050781 C 164.863281 279.050781 142.125 271.527344 124.945312 256.148438 C 107.765625 240.765625 96.414062 217.460938 96.644531 187.601562 C 96.613281 136.429688 139.058594 95.214844 190.164062 96.714844 "/><path style=" stroke:none;fill-rule:nonzero;fill:#ffffff;fill-opacity:1;" d="M 65.652344 60.058594 L 107.398438 101.839844 C 111.128906 105.636719 105.535156 111.261719 101.738281 107.5 L 59.992188 65.75 C 56.429688 61.957031 61.890625 56.53125 65.652344 60.058594 "/><path style=" stroke:none;fill-rule:nonzero;fill:#ffffff;fill-opacity:1;" d="M 62.121094 51.769531 C 65.050781 51.535156 68.382812 52.734375 70.613281 54.832031 L 70.679688 54.898438 L 70.710938 54.964844 L 112.558594 96.78125 C 114.722656 99.011719 115.988281 102.339844 115.824219 105.300781 C 115.621094 108.265625 114.324219 110.796875 112.492188 112.625 C 110.628906 114.457031 108.132812 115.789062 105.167969 115.957031 C 102.171875 116.121094 98.910156 114.824219 96.679688 112.625 L 96.644531 112.625 L 54.796875 70.746094 L 54.765625 70.679688 C 52.632812 68.449219 51.46875 65.21875 51.667969 62.289062 C 51.867188 59.359375 53.167969 56.894531 55 55.097656 C 56.796875 53.265625 59.226562 51.96875 62.121094 51.769531 "/><path style=" stroke:none;fill-rule:nonzero;fill:#ffffff;fill-opacity:1;" d="M 11.1875 183.570312 L 70.246094 183.570312 C 75.539062 183.636719 75.539062 191.527344 70.246094 191.5625 L 11.1875 191.5625 C 5.894531 191.527344 5.894531 183.605469 11.1875 183.570312 "/><path style=" stroke:none;fill-rule:nonzero;fill:#ffffff;fill-opacity:1;" d="M 70.3125 176.3125 C 73.410156 176.347656 76.671875 177.84375 78.636719 180.074219 C 80.632812 182.304688 81.433594 185.003906 81.433594 187.601562 C 81.433594 190.164062 80.632812 192.859375 78.636719 195.089844 C 76.671875 197.320312 73.410156 198.753906 70.3125 198.785156 L 11.121094 198.785156 C 8.023438 198.753906 4.726562 197.320312 2.796875 195.089844 C 0.800781 192.859375 0 190.164062 0 187.601562 C 0 185.003906 0.800781 182.304688 2.796875 180.074219 C 4.726562 177.84375 8.023438 176.347656 11.121094 176.3125 L 70.3125 176.3125 "/><path style=" stroke:none;fill-rule:nonzero;fill:#ffffff;fill-opacity:1;" d="M 59.992188 309.414062 L 101.738281 267.632812 C 105.535156 263.90625 111.128906 269.53125 107.398438 273.292969 L 65.652344 315.074219 C 61.890625 318.601562 56.429688 313.175781 59.992188 309.414062 "/><path style=" stroke:none;fill-rule:nonzero;fill:#ffffff;fill-opacity:1;" d="M 105.167969 259.210938 C 108.132812 259.410156 110.628906 260.707031 112.492188 262.539062 C 114.292969 264.371094 115.621094 266.902344 115.824219 269.863281 C 115.988281 272.859375 114.722656 276.121094 112.527344 278.355469 L 112.527344 278.421875 L 70.644531 320.269531 L 70.613281 320.335938 C 68.382812 322.433594 65.050781 323.628906 62.121094 323.429688 C 59.226562 323.199219 56.796875 321.898438 55 320.101562 C 53.167969 318.269531 51.867188 315.808594 51.667969 312.878906 C 51.46875 309.980469 52.632812 306.71875 54.730469 304.488281 L 54.796875 304.421875 L 54.898438 304.289062 L 96.679688 262.539062 L 96.679688 262.472656 C 98.910156 260.277344 102.171875 259.042969 105.167969 259.210938 "/><path style=" stroke:none;fill-rule:nonzero;fill:#ffffff;fill-opacity:1;" d="M 183.472656 363.878906 L 183.472656 304.820312 C 183.472656 299.460938 191.496094 299.460938 191.496094 304.820312 L 191.496094 363.878906 C 191.496094 369.207031 183.472656 369.207031 183.472656 363.878906 "/><path style=" stroke:none;fill-rule:nonzero;fill:#ffffff;fill-opacity:1;" d="M 187.5 293.601562 C 190.097656 293.601562 192.761719 294.433594 194.992188 296.429688 C 197.253906 298.429688 198.6875 301.691406 198.6875 304.855469 L 198.6875 363.878906 C 198.6875 367.042969 197.253906 370.304688 194.992188 372.304688 C 192.761719 374.300781 190.097656 375.101562 187.5 375.101562 C 184.902344 375.101562 182.171875 374.300781 179.941406 372.304688 C 177.679688 370.304688 176.246094 367.042969 176.246094 363.878906 L 176.246094 304.789062 C 176.246094 301.65625 177.679688 298.429688 179.941406 296.429688 C 182.171875 294.433594 184.902344 293.601562 187.5 293.601562 "/><path style=" stroke:none;fill-rule:nonzero;fill:#ffffff;fill-opacity:1;" d="M 309.316406 315.074219 L 267.566406 273.292969 C 264.003906 269.53125 269.429688 264.105469 273.226562 267.632812 L 314.976562 309.414062 C 318.535156 313.175781 313.109375 318.601562 309.316406 315.074219 "/><path style=" stroke:none;fill-rule:nonzero;fill:#ffffff;fill-opacity:1;" d="M 269.730469 259.277344 C 272.628906 259.078125 275.890625 260.277344 278.121094 262.375 L 278.253906 262.507812 L 320.203125 304.421875 L 320.234375 304.488281 C 322.367188 306.71875 323.53125 309.980469 323.332031 312.910156 C 323.132812 315.808594 321.832031 318.269531 320 320.101562 C 318.171875 321.898438 315.707031 323.199219 312.8125 323.429688 C 309.882812 323.628906 306.652344 322.433594 304.386719 320.335938 L 304.320312 320.269531 L 304.222656 320.136719 L 262.40625 278.355469 L 262.273438 278.21875 C 260.175781 275.988281 258.976562 272.726562 259.210938 269.796875 C 259.410156 266.902344 260.707031 264.4375 262.507812 262.605469 C 264.335938 260.808594 266.800781 259.476562 269.730469 259.277344 "/><path style=" stroke:none;fill-rule:nonzero;fill:#ffffff;fill-opacity:1;" d="M 363.8125 191.5625 L 304.722656 191.5625 C 299.425781 191.527344 299.425781 183.605469 304.722656 183.570312 L 363.8125 183.570312 C 369.074219 183.636719 369.074219 191.527344 363.8125 191.5625 "/><path style=" stroke:none;fill-rule:nonzero;fill:#ffffff;fill-opacity:1;" d="M 363.878906 176.3125 C 366.976562 176.347656 370.207031 177.84375 372.171875 180.074219 C 374.132812 182.304688 375 185.003906 375 187.601562 C 375 190.164062 374.132812 192.859375 372.171875 195.089844 C 370.207031 197.320312 366.976562 198.753906 363.878906 198.785156 L 304.621094 198.785156 C 301.523438 198.753906 298.296875 197.320312 296.332031 195.089844 C 294.367188 192.859375 293.566406 190.164062 293.566406 187.601562 C 293.566406 185.003906 294.367188 182.304688 296.332031 180.074219 C 298.296875 177.84375 301.523438 176.347656 304.621094 176.3125 L 363.878906 176.3125 "/><path style=" stroke:none;fill-rule:nonzero;fill:#ffffff;fill-opacity:1;" d="M 314.976562 65.75 L 273.226562 107.5 C 269.429688 111.0625 264.003906 105.601562 267.566406 101.839844 L 309.316406 60.058594 C 313.109375 56.53125 318.535156 61.957031 314.976562 65.75 "/><path style=" stroke:none;fill-rule:nonzero;fill:#ffffff;fill-opacity:1;" d="M 312.8125 51.769531 C 315.707031 51.96875 318.171875 53.265625 320 55.066406 C 321.832031 56.894531 323.132812 59.359375 323.332031 62.289062 C 323.53125 65.21875 322.367188 68.449219 320.234375 70.679688 L 320.203125 70.746094 L 320.066406 70.8125 L 278.253906 112.691406 L 278.121094 112.757812 C 275.890625 114.855469 272.660156 116.054688 269.730469 115.824219 C 266.800781 115.621094 264.335938 114.324219 262.507812 112.492188 C 260.707031 110.695312 259.410156 108.230469 259.210938 105.300781 C 258.976562 102.371094 260.175781 99.144531 262.273438 96.878906 L 262.40625 96.847656 L 304.320312 54.898438 L 304.386719 54.832031 C 306.652344 52.734375 309.882812 51.535156 312.8125 51.769531 "/><path style=" stroke:none;fill-rule:nonzero;fill:#ffffff;fill-opacity:1;" d="M 191.496094 11.253906 L 191.496094 70.347656 C 191.496094 75.671875 183.472656 75.671875 183.472656 70.347656 L 183.472656 11.253906 C 183.472656 5.925781 191.496094 5.925781 191.496094 11.253906 "/><path style=" stroke:none;fill-rule:nonzero;fill:#ffffff;fill-opacity:1;" d="M 187.5 0.0351562 C 190.097656 0.0351562 192.761719 0.867188 194.992188 2.863281 C 197.253906 4.859375 198.6875 8.125 198.6875 11.285156 L 198.6875 70.3125 C 198.6875 73.476562 197.253906 76.738281 194.992188 78.734375 C 192.761719 80.734375 190.097656 81.53125 187.5 81.53125 C 184.902344 81.53125 182.171875 80.734375 179.941406 78.734375 C 177.679688 76.738281 176.246094 73.476562 176.246094 70.3125 L 176.246094 11.285156 C 176.246094 8.125 177.679688 4.859375 179.941406 2.863281 C 182.171875 0.867188 184.902344 0.0351562 187.5 0.0351562 "/></g></svg>