<svg xmlns="http://www.w3.org/2000/svg" xmlns:xlink="http://www.w3.org/1999/xlink" width="500" zoomAndPan="magnify" viewBox="0 0 375 374.999991" height="500" preserveAspectRatio="xMidYMid meet" version="1.2"><defs><clipPath id="e4537508aa"><path d="M 0 45.515625 L 375 45.515625 L 375 329.765625 L 0 329.765625 Z M 0 45.515625 "/></clipPath></defs><g id="094d771a34"><g clip-rule="nonzero" clip-path="url(#e4537508aa)"><path style=" stroke:none;fill-rule:nonzero;fill:#000000;fill-opacity:1;" d="M 8.535156 208.179688 L 121.679688 321.214844 C 127.175781 326.707031 134.484375 329.742188 142.242188 329.742188 C 150 329.742188 157.304688 326.707031 162.800781 321.214844 C 168.296875 315.726562 171.335938 308.425781 171.335938 300.675781 C 171.335938 292.925781 168.296875 285.625 162.800781 280.136719 L 99.308594 216.707031 L 345.90625 216.707031 C 361.941406 216.707031 375 203.660156 375 187.640625 C 375 171.621094 361.941406 158.574219 345.90625 158.574219 L 99.308594 158.574219 L 162.800781 95.144531 C 168.296875 89.65625 171.335938 82.355469 171.335938 74.605469 C 171.335938 66.855469 168.296875 59.554688 162.800781 54.066406 C 157.304688 48.574219 150 45.539062 142.242188 45.539062 C 134.484375 45.539062 127.175781 48.574219 121.679688 54.066406 L 8.726562 166.90625 C 3.167969 172.269531 0.0664062 179.566406 0.0664062 187.445312 C 0 195.328125 2.972656 202.625 8.535156 208.179688 Z M 8.535156 208.179688 "/></g></g></svg>