<svg xmlns="http://www.w3.org/2000/svg" xmlns:xlink="http://www.w3.org/1999/xlink" width="500" zoomAndPan="magnify" viewBox="0 0 375 374.999991" height="500" preserveAspectRatio="xMidYMid meet" version="1.2"><defs><clipPath id="bb44e347cf"><path d="M 0 6.421875 L 75 6.421875 L 75 254 L 0 254 Z M 0 6.421875 "/></clipPath><clipPath id="12acd5ead5"><path d="M 99 6.421875 L 373 6.421875 L 373 368.578125 L 99 368.578125 Z M 99 6.421875 "/></clipPath></defs><g id="76fed22808"><g clip-rule="nonzero" clip-path="url(#bb44e347cf)"><path style=" stroke:none;fill-rule:nonzero;fill:#05a814;fill-opacity:1;" d="M 13.125 253.691406 L 62.582031 253.691406 C 63.390625 253.691406 64.195312 253.613281 64.992188 253.453125 C 65.789062 253.296875 66.5625 253.0625 67.3125 252.75 C 68.0625 252.441406 68.773438 252.058594 69.449219 251.609375 C 70.125 251.15625 70.75 250.644531 71.324219 250.070312 C 71.898438 249.496094 72.410156 248.871094 72.859375 248.195312 C 73.3125 247.523438 73.691406 246.808594 74.003906 246.058594 C 74.3125 245.308594 74.546875 244.535156 74.707031 243.738281 C 74.863281 242.945312 74.945312 242.140625 74.945312 241.328125 L 74.945312 18.785156 C 74.945312 17.972656 74.863281 17.167969 74.707031 16.375 C 74.546875 15.578125 74.3125 14.804688 74.003906 14.054688 C 73.691406 13.304688 73.3125 12.589844 72.859375 11.917969 C 72.410156 11.242188 71.898438 10.617188 71.324219 10.042969 C 70.75 9.46875 70.125 8.957031 69.449219 8.503906 C 68.773438 8.054688 68.0625 7.671875 67.3125 7.363281 C 66.5625 7.050781 65.789062 6.816406 64.992188 6.660156 C 64.195312 6.5 63.390625 6.421875 62.582031 6.421875 L 13.125 6.421875 C 12.316406 6.421875 11.511719 6.5 10.714844 6.660156 C 9.917969 6.816406 9.144531 7.050781 8.394531 7.363281 C 7.644531 7.671875 6.933594 8.054688 6.257812 8.503906 C 5.582031 8.957031 4.957031 9.46875 4.382812 10.042969 C 3.808594 10.617188 3.296875 11.242188 2.847656 11.917969 C 2.394531 12.589844 2.015625 13.304688 1.703125 14.054688 C 1.394531 14.804688 1.160156 15.578125 1 16.375 C 0.84375 17.167969 0.761719 17.972656 0.761719 18.785156 L 0.761719 241.328125 C 0.761719 242.140625 0.84375 242.945312 1 243.738281 C 1.160156 244.535156 1.394531 245.308594 1.703125 246.058594 C 2.015625 246.808594 2.394531 247.523438 2.847656 248.195312 C 3.296875 248.871094 3.808594 249.496094 4.382812 250.070312 C 4.957031 250.644531 5.582031 251.15625 6.257812 251.609375 C 6.933594 252.058594 7.644531 252.441406 8.394531 252.75 C 9.144531 253.0625 9.917969 253.296875 10.714844 253.453125 C 11.511719 253.613281 12.316406 253.691406 13.125 253.691406 Z M 13.125 253.691406 "/></g><g clip-rule="nonzero" clip-path="url(#12acd5ead5)"><path style=" stroke:none;fill-rule:nonzero;fill:#05a814;fill-opacity:1;" d="M 361.628906 221.238281 C 360.4375 222.800781 359.160156 224.289062 357.800781 225.703125 C 356.4375 227.121094 355 228.453125 353.480469 229.699219 C 351.964844 230.949219 350.382812 232.105469 348.734375 233.171875 C 347.082031 234.238281 345.378906 235.207031 343.617188 236.074219 C 341.851562 236.941406 340.046875 237.707031 338.199219 238.367188 C 336.347656 239.027344 334.464844 239.578125 332.550781 240.019531 C 330.636719 240.460938 328.703125 240.792969 326.753906 241.011719 C 324.800781 241.230469 322.84375 241.335938 320.878906 241.328125 L 255.671875 241.328125 L 281.5625 293.105469 C 282.234375 294.449219 282.855469 295.816406 283.421875 297.210938 C 283.988281 298.601562 284.5 300.011719 284.957031 301.445312 C 285.414062 302.875 285.8125 304.324219 286.15625 305.789062 C 286.496094 307.25 286.78125 308.726562 287.011719 310.210938 C 287.238281 311.695312 287.40625 313.1875 287.515625 314.6875 C 287.628906 316.183594 287.679688 317.6875 287.671875 319.1875 C 287.667969 320.691406 287.601562 322.191406 287.476562 323.6875 C 287.355469 325.1875 287.171875 326.675781 286.929688 328.160156 C 286.691406 329.644531 286.390625 331.117188 286.035156 332.574219 C 285.679688 334.035156 285.269531 335.480469 284.800781 336.90625 C 284.332031 338.335938 283.808594 339.742188 283.226562 341.128906 C 282.648438 342.515625 282.015625 343.878906 281.332031 345.214844 C 280.644531 346.554688 279.910156 347.863281 279.121094 349.140625 C 278.335938 350.421875 277.496094 351.667969 276.613281 352.882812 C 275.726562 354.097656 274.796875 355.273438 273.816406 356.417969 C 272.839844 357.558594 271.820312 358.660156 270.757812 359.722656 C 269.238281 361.179688 267.59375 362.480469 265.824219 363.621094 C 264.054688 364.761719 262.191406 365.71875 260.234375 366.5 C 258.277344 367.28125 256.265625 367.863281 254.195312 368.253906 C 252.125 368.644531 250.039062 368.832031 247.933594 368.820312 C 245.828125 368.757812 243.75 368.484375 241.699219 368 C 239.648438 367.515625 237.667969 366.832031 235.753906 365.945312 C 233.839844 365.058594 232.039062 363.992188 230.339844 362.742188 C 228.644531 361.492188 227.089844 360.085938 225.679688 358.519531 L 164.566406 290.695312 C 155.152344 280.261719 145.003906 270.597656 134.128906 261.699219 C 123.25 252.804688 111.765625 244.777344 99.671875 237.617188 L 99.671875 30.566406 L 116.683594 17.3125 C 119.332031 15.546875 122.09375 13.980469 124.972656 12.621094 C 127.851562 11.261719 130.816406 10.121094 133.863281 9.199219 C 136.910156 8.273438 140.007812 7.582031 143.160156 7.117188 C 146.308594 6.652344 149.476562 6.417969 152.660156 6.421875 L 265.339844 6.421875 C 267.46875 6.421875 269.589844 6.507812 271.710938 6.683594 C 273.832031 6.859375 275.941406 7.117188 278.039062 7.464844 C 280.136719 7.8125 282.214844 8.246094 284.28125 8.761719 C 286.34375 9.28125 288.378906 9.882812 290.394531 10.566406 C 292.40625 11.25 294.390625 12.015625 296.339844 12.863281 C 298.292969 13.710938 300.207031 14.632812 302.082031 15.636719 C 303.957031 16.640625 305.785156 17.71875 307.574219 18.875 C 309.359375 20.027344 311.097656 21.25 312.78125 22.546875 C 314.46875 23.84375 316.101562 25.207031 317.675781 26.636719 C 319.25 28.0625 320.761719 29.554688 322.214844 31.109375 C 323.667969 32.664062 325.054688 34.273438 326.375 35.9375 C 327.699219 37.605469 328.949219 39.324219 330.128906 41.09375 C 331.308594 42.863281 332.414062 44.675781 333.445312 46.539062 C 334.476562 48.398438 335.429688 50.296875 336.304688 52.234375 C 337.183594 54.171875 337.976562 56.144531 338.691406 58.144531 C 339.40625 60.148438 340.039062 62.179688 340.585938 64.234375 L 370.578125 176.742188 C 371.089844 178.636719 371.488281 180.554688 371.777344 182.496094 C 372.0625 184.433594 372.238281 186.386719 372.300781 188.347656 C 372.363281 190.308594 372.316406 192.265625 372.152344 194.222656 C 371.988281 196.175781 371.714844 198.117188 371.328125 200.039062 C 370.941406 201.964844 370.441406 203.859375 369.835938 205.722656 C 369.230469 207.589844 368.519531 209.417969 367.703125 211.199219 C 366.886719 212.984375 365.972656 214.714844 364.957031 216.394531 C 363.941406 218.074219 362.832031 219.6875 361.628906 221.238281 Z M 361.628906 221.238281 "/></g></g></svg>