<svg xmlns="http://www.w3.org/2000/svg" xmlns:xlink="http://www.w3.org/1999/xlink" width="500" zoomAndPan="magnify" viewBox="0 0 375 374.999991" height="500" preserveAspectRatio="xMidYMid meet" version="1.2"><defs><clipPath id="4ad4af0c32"><path d="M 0 6.421875 L 75 6.421875 L 75 254 L 0 254 Z M 0 6.421875 "/></clipPath><clipPath id="452c196849"><path d="M 99 6.421875 L 373 6.421875 L 373 368.578125 L 99 368.578125 Z M 99 6.421875 "/></clipPath></defs><g id="4cdcaa0e51"><g clip-rule="nonzero" clip-path="url(#4ad4af0c32)"><path style=" stroke:none;fill-rule:nonzero;fill:#000000;fill-opacity:1;" d="M 13.128906 253.691406 L 62.597656 253.691406 C 63.410156 253.691406 64.210938 253.613281 65.007812 253.453125 C 65.804688 253.296875 66.578125 253.0625 67.328125 252.75 C 68.078125 252.441406 68.792969 252.058594 69.46875 251.609375 C 70.140625 251.15625 70.765625 250.644531 71.339844 250.070312 C 71.914062 249.496094 72.429688 248.871094 72.878906 248.195312 C 73.332031 247.523438 73.710938 246.808594 74.023438 246.058594 C 74.332031 245.308594 74.566406 244.535156 74.726562 243.738281 C 74.882812 242.945312 74.964844 242.140625 74.964844 241.328125 L 74.964844 18.785156 C 74.964844 17.972656 74.882812 17.167969 74.726562 16.375 C 74.566406 15.578125 74.332031 14.804688 74.023438 14.054688 C 73.710938 13.304688 73.332031 12.589844 72.878906 11.917969 C 72.429688 11.242188 71.914062 10.617188 71.339844 10.042969 C 70.765625 9.46875 70.140625 8.957031 69.46875 8.503906 C 68.792969 8.054688 68.078125 7.671875 67.328125 7.363281 C 66.578125 7.050781 65.804688 6.816406 65.007812 6.660156 C 64.210938 6.5 63.410156 6.421875 62.597656 6.421875 L 13.128906 6.421875 C 12.316406 6.421875 11.511719 6.5 10.71875 6.660156 C 9.921875 6.816406 9.148438 7.050781 8.398438 7.363281 C 7.648438 7.671875 6.933594 8.054688 6.257812 8.503906 C 5.585938 8.957031 4.960938 9.46875 4.386719 10.042969 C 3.8125 10.617188 3.296875 11.242188 2.847656 11.917969 C 2.394531 12.589844 2.015625 13.304688 1.703125 14.054688 C 1.394531 14.804688 1.160156 15.578125 1 16.375 C 0.84375 17.167969 0.761719 17.972656 0.761719 18.785156 L 0.761719 241.328125 C 0.761719 242.140625 0.84375 242.945312 1 243.738281 C 1.160156 244.535156 1.394531 245.308594 1.703125 246.058594 C 2.015625 246.808594 2.394531 247.523438 2.847656 248.195312 C 3.296875 248.871094 3.8125 249.496094 4.386719 250.070312 C 4.960938 250.644531 5.585938 251.15625 6.257812 251.609375 C 6.933594 252.058594 7.648438 252.441406 8.398438 252.75 C 9.148438 253.0625 9.921875 253.296875 10.71875 253.453125 C 11.511719 253.613281 12.316406 253.691406 13.128906 253.691406 Z M 13.128906 253.691406 "/></g><g clip-rule="nonzero" clip-path="url(#452c196849)"><path style=" stroke:none;fill-rule:nonzero;fill:#000000;fill-opacity:1;" d="M 361.722656 221.238281 C 360.53125 222.800781 359.253906 224.289062 357.890625 225.703125 C 356.53125 227.121094 355.089844 228.453125 353.574219 229.699219 C 352.058594 230.949219 350.472656 232.105469 348.824219 233.171875 C 347.171875 234.238281 345.464844 235.207031 343.703125 236.074219 C 341.941406 236.941406 340.136719 237.707031 338.285156 238.367188 C 336.433594 239.027344 334.550781 239.578125 332.636719 240.019531 C 330.722656 240.460938 328.789062 240.792969 326.835938 241.011719 C 324.882812 241.230469 322.925781 241.335938 320.960938 241.328125 L 255.738281 241.328125 L 281.636719 293.105469 C 282.308594 294.449219 282.929688 295.816406 283.496094 297.210938 C 284.0625 298.601562 284.574219 300.011719 285.03125 301.445312 C 285.484375 302.875 285.886719 304.324219 286.230469 305.789062 C 286.570312 307.25 286.855469 308.726562 287.085938 310.210938 C 287.3125 311.695312 287.480469 313.1875 287.59375 314.6875 C 287.703125 316.183594 287.753906 317.6875 287.75 319.1875 C 287.742188 320.691406 287.675781 322.191406 287.550781 323.6875 C 287.429688 325.1875 287.246094 326.675781 287.003906 328.160156 C 286.765625 329.644531 286.464844 331.117188 286.109375 332.574219 C 285.753906 334.035156 285.34375 335.480469 284.875 336.90625 C 284.402344 338.335938 283.878906 339.742188 283.300781 341.128906 C 282.722656 342.515625 282.089844 343.878906 281.40625 345.214844 C 280.71875 346.554688 279.980469 347.863281 279.195312 349.140625 C 278.40625 350.421875 277.570312 351.667969 276.683594 352.882812 C 275.796875 354.097656 274.867188 355.273438 273.890625 356.417969 C 272.910156 357.558594 271.890625 358.660156 270.828125 359.722656 C 269.308594 361.179688 267.664062 362.480469 265.890625 363.621094 C 264.121094 364.761719 262.257812 365.71875 260.300781 366.5 C 258.34375 367.28125 256.332031 367.863281 254.261719 368.253906 C 252.191406 368.644531 250.105469 368.832031 247.996094 368.820312 C 245.890625 368.757812 243.8125 368.484375 241.761719 368 C 239.710938 367.515625 237.726562 366.832031 235.816406 365.945312 C 233.902344 365.058594 232.097656 363.992188 230.402344 362.742188 C 228.703125 361.492188 227.148438 360.085938 225.738281 358.519531 L 164.609375 290.695312 C 155.191406 280.261719 145.042969 270.597656 134.164062 261.699219 C 123.28125 252.804688 111.792969 244.777344 99.695312 237.617188 L 99.695312 30.566406 L 116.714844 17.3125 C 119.363281 15.546875 122.125 13.980469 125.007812 12.621094 C 127.886719 11.261719 130.851562 10.121094 133.898438 9.199219 C 136.945312 8.273438 140.046875 7.582031 143.195312 7.117188 C 146.347656 6.652344 149.515625 6.417969 152.699219 6.421875 L 265.410156 6.421875 C 267.539062 6.421875 269.660156 6.507812 271.78125 6.683594 C 273.902344 6.859375 276.011719 7.117188 278.109375 7.464844 C 280.207031 7.8125 282.289062 8.246094 284.351562 8.761719 C 286.417969 9.28125 288.457031 9.882812 290.46875 10.566406 C 292.484375 11.25 294.464844 12.015625 296.417969 12.863281 C 298.371094 13.710938 300.28125 14.632812 302.160156 15.636719 C 304.035156 16.640625 305.867188 17.71875 307.652344 18.875 C 309.441406 20.027344 311.175781 21.25 312.863281 22.546875 C 314.550781 23.84375 316.183594 25.207031 317.757812 26.636719 C 319.332031 28.0625 320.847656 29.554688 322.300781 31.109375 C 323.753906 32.664062 325.140625 34.273438 326.460938 35.9375 C 327.78125 37.605469 329.03125 39.324219 330.214844 41.09375 C 331.394531 42.863281 332.5 44.675781 333.53125 46.539062 C 334.5625 48.398438 335.515625 50.296875 336.394531 52.234375 C 337.269531 54.171875 338.066406 56.144531 338.777344 58.144531 C 339.492188 60.148438 340.125 62.179688 340.671875 64.234375 L 370.675781 176.742188 C 371.183594 178.636719 371.582031 180.554688 371.871094 182.496094 C 372.160156 184.433594 372.335938 186.386719 372.398438 188.347656 C 372.460938 190.308594 372.410156 192.265625 372.246094 194.222656 C 372.085938 196.175781 371.808594 198.117188 371.421875 200.039062 C 371.035156 201.964844 370.539062 203.859375 369.933594 205.722656 C 369.328125 207.589844 368.617188 209.417969 367.800781 211.199219 C 366.984375 212.984375 366.066406 214.714844 365.050781 216.394531 C 364.035156 218.074219 362.925781 219.6875 361.722656 221.238281 Z M 361.722656 221.238281 "/></g></g></svg>