<svg xmlns="http://www.w3.org/2000/svg" xmlns:xlink="http://www.w3.org/1999/xlink" width="500" zoomAndPan="magnify" viewBox="0 0 375 374.999991" height="500" preserveAspectRatio="xMidYMid meet" version="1.2"><defs><clipPath id="476c1d2013"><path d="M 0 273 L 375 273 L 375 320.109375 L 0 320.109375 Z M 0 273 "/></clipPath><clipPath id="1357531255"><path d="M 0 54.609375 L 375 54.609375 L 375 102 L 0 102 Z M 0 54.609375 "/></clipPath></defs><g id="ccfa0c5a5d"><path style=" stroke:none;fill-rule:nonzero;fill:#cba95c;fill-opacity:1;" d="M 351.191406 163.945312 L 23.414062 163.945312 C 10.480469 163.945312 0 174.429688 0 187.359375 C 0 200.289062 10.480469 210.773438 23.414062 210.773438 L 351.191406 210.773438 C 364.121094 210.773438 374.601562 200.289062 374.601562 187.359375 C 374.601562 174.429688 364.121094 163.945312 351.191406 163.945312 Z M 351.191406 163.945312 "/><g clip-rule="nonzero" clip-path="url(#476c1d2013)"><path style=" stroke:none;fill-rule:nonzero;fill:#cba95c;fill-opacity:1;" d="M 351.191406 273.207031 L 23.414062 273.207031 C 10.480469 273.207031 0 283.6875 0 296.617188 C 0 309.550781 10.480469 320.03125 23.414062 320.03125 L 351.191406 320.03125 C 364.121094 320.03125 374.601562 309.550781 374.601562 296.617188 C 374.601562 283.6875 364.121094 273.207031 351.191406 273.207031 Z M 351.191406 273.207031 "/></g><g clip-rule="nonzero" clip-path="url(#1357531255)"><path style=" stroke:none;fill-rule:nonzero;fill:#cba95c;fill-opacity:1;" d="M 23.414062 101.511719 L 351.191406 101.511719 C 364.121094 101.511719 374.601562 91.03125 374.601562 78.101562 C 374.601562 65.167969 364.121094 54.6875 351.191406 54.6875 L 23.414062 54.6875 C 10.480469 54.6875 0 65.167969 0 78.101562 C 0 91.03125 10.480469 101.511719 23.414062 101.511719 Z M 23.414062 101.511719 "/></g></g></svg>