<svg xmlns="http://www.w3.org/2000/svg" xmlns:xlink="http://www.w3.org/1999/xlink" width="500" zoomAndPan="magnify" viewBox="0 0 375 374.999991" height="500" preserveAspectRatio="xMidYMid meet" version="1.2"><defs><clipPath id="b46c7a1897"><path d="M 37.5 0 L 337.5 0 L 337.5 375 L 37.5 375 Z M 37.5 0 "/></clipPath><clipPath id="43908094ac"><path d="M 225 37.5 L 337.5 37.5 L 337.5 150 L 225 150 Z M 225 37.5 "/></clipPath><clipPath id="6579d4e372"><path d="M 281.25 37.5 C 250.183594 37.5 225 62.683594 225 93.75 C 225 124.816406 250.183594 150 281.25 150 C 312.316406 150 337.5 124.816406 337.5 93.75 C 337.5 62.683594 312.316406 37.5 281.25 37.5 Z M 281.25 37.5 "/></clipPath></defs><g id="129f51ca58"><g clip-rule="nonzero" clip-path="url(#b46c7a1897)"><path style=" stroke:none;fill-rule:nonzero;fill:#5c4e2e;fill-opacity:1;" d="M 187.5 0 C 172.5 0 159.375 13.125 159.375 28.125 L 159.375 41.234375 C 111.019531 53.824219 75 97.84375 75 150 L 75 262.5 L 46.875 284.984375 C 41.25 288.734375 37.5 292.5 37.5 300 C 37.5 311.25 45 318.75 56.25 318.75 L 318.75 318.75 C 330 318.75 337.5 311.25 337.5 300 C 337.5 292.5 333.75 288.734375 328.125 284.984375 L 300 262.5 L 300 150 C 300 97.84375 263.980469 53.824219 215.625 41.234375 L 215.625 28.125 C 215.625 13.125 202.5 0 187.5 0 Z M 150 337.5 C 150 358.125 166.875 375 187.5 375 C 208.125 375 225 358.125 225 337.5 Z M 150 337.5 "/></g><g clip-rule="nonzero" clip-path="url(#43908094ac)"><g clip-rule="nonzero" clip-path="url(#6579d4e372)"><path style=" stroke:none;fill-rule:nonzero;fill:#cba95c;fill-opacity:1;" d="M 225 37.5 L 337.5 37.5 L 337.5 150 L 225 150 Z M 225 37.5 "/></g></g></g></svg>