<svg xmlns="http://www.w3.org/2000/svg" xmlns:xlink="http://www.w3.org/1999/xlink" width="500" zoomAndPan="magnify" viewBox="0 0 375 374.999991" height="500" preserveAspectRatio="xMidYMid meet" version="1.2"><defs><clipPath id="474a2069f5"><path d="M 0 94.265625 L 375 94.265625 L 375 281.015625 L 0 281.015625 Z M 0 94.265625 "/></clipPath></defs><g id="27de65f875"><g clip-rule="nonzero" clip-path="url(#474a2069f5)"><path style=" stroke:none;fill-rule:nonzero;fill:#897725;fill-opacity:1;" d="M 281.542969 281.015625 L 94.015625 281.015625 C 92.488281 281.015625 90.960938 280.976562 89.433594 280.902344 C 87.90625 280.828125 86.382812 280.714844 84.863281 280.566406 C 83.34375 280.417969 81.824219 280.230469 80.316406 280.003906 C 78.804688 279.78125 77.296875 279.519531 75.800781 279.222656 C 74.300781 278.921875 72.808594 278.589844 71.328125 278.21875 C 69.84375 277.847656 68.371094 277.4375 66.910156 276.996094 C 65.449219 276.550781 63.996094 276.070312 62.558594 275.558594 C 61.121094 275.042969 59.695312 274.492188 58.28125 273.90625 C 56.871094 273.324219 55.472656 272.703125 54.09375 272.050781 C 52.710938 271.398438 51.347656 270.710938 50 269.988281 C 48.652344 269.269531 47.320312 268.515625 46.011719 267.730469 C 44.699219 266.945312 43.410156 266.128906 42.140625 265.277344 C 40.867188 264.429688 39.617188 263.550781 38.390625 262.640625 C 37.164062 261.730469 35.960938 260.789062 34.777344 259.820312 C 33.597656 258.851562 32.441406 257.851562 31.308594 256.828125 C 30.175781 255.800781 29.070312 254.746094 27.988281 253.667969 C 26.910156 252.585938 25.855469 251.480469 24.828125 250.347656 C 23.800781 249.214844 22.804688 248.058594 21.835938 246.875 C 20.867188 245.695312 19.925781 244.492188 19.015625 243.261719 C 18.105469 242.035156 17.226562 240.789062 16.375 239.515625 C 15.527344 238.246094 14.710938 236.957031 13.925781 235.644531 C 13.140625 234.332031 12.386719 233.003906 11.664062 231.65625 C 10.945312 230.308594 10.257812 228.945312 9.605469 227.5625 C 8.953125 226.179688 8.332031 224.785156 7.746094 223.375 C 7.164062 221.960938 6.613281 220.535156 6.097656 219.097656 C 5.582031 217.660156 5.105469 216.207031 4.660156 214.746094 C 4.214844 213.28125 3.808594 211.8125 3.4375 210.328125 C 3.066406 208.847656 2.730469 207.355469 2.433594 205.855469 C 2.136719 204.359375 1.875 202.851562 1.648438 201.339844 C 1.425781 199.828125 1.238281 198.3125 1.089844 196.792969 C 0.941406 195.269531 0.828125 193.746094 0.753906 192.222656 C 0.675781 190.695312 0.640625 189.167969 0.640625 187.640625 C 0.640625 186.113281 0.675781 184.585938 0.753906 183.058594 C 0.828125 181.53125 0.941406 180.007812 1.089844 178.488281 C 1.238281 176.964844 1.425781 175.449219 1.648438 173.9375 C 1.875 172.425781 2.136719 170.921875 2.433594 169.421875 C 2.730469 167.925781 3.066406 166.433594 3.4375 164.953125 C 3.808594 163.46875 4.214844 161.996094 4.660156 160.535156 C 5.105469 159.070312 5.582031 157.621094 6.097656 156.183594 C 6.613281 154.742188 7.164062 153.316406 7.746094 151.90625 C 8.332031 150.496094 8.953125 149.097656 9.605469 147.714844 C 10.257812 146.335938 10.945312 144.96875 11.664062 143.621094 C 12.386719 142.273438 13.140625 140.945312 13.925781 139.636719 C 14.710938 138.324219 15.527344 137.035156 16.375 135.761719 C 17.226562 134.492188 18.105469 133.242188 19.015625 132.015625 C 19.925781 130.789062 20.867188 129.582031 21.835938 128.402344 C 22.804688 127.222656 23.800781 126.066406 24.828125 124.933594 C 25.855469 123.800781 26.910156 122.695312 27.988281 121.613281 C 29.070312 120.53125 30.175781 119.480469 31.308594 118.453125 C 32.441406 117.425781 33.597656 116.429688 34.777344 115.460938 C 35.960938 114.488281 37.164062 113.550781 38.390625 112.640625 C 39.617188 111.730469 40.867188 110.847656 42.140625 110 C 43.410156 109.152344 44.699219 108.335938 46.011719 107.546875 C 47.320312 106.761719 48.652344 106.011719 50 105.289062 C 51.347656 104.570312 52.710938 103.882812 54.09375 103.230469 C 55.472656 102.574219 56.871094 101.957031 58.28125 101.371094 C 59.695312 100.785156 61.121094 100.238281 62.558594 99.722656 C 63.996094 99.207031 65.449219 98.726562 66.910156 98.285156 C 68.371094 97.839844 69.84375 97.433594 71.328125 97.0625 C 72.808594 96.691406 74.300781 96.355469 75.800781 96.058594 C 77.296875 95.761719 78.804688 95.5 80.316406 95.273438 C 81.824219 95.050781 83.34375 94.863281 84.863281 94.714844 C 86.382812 94.5625 87.90625 94.453125 89.433594 94.375 C 90.960938 94.300781 92.488281 94.265625 94.015625 94.265625 L 281.542969 94.265625 C 283.070312 94.265625 284.597656 94.300781 286.125 94.375 C 287.648438 94.453125 289.171875 94.5625 290.695312 94.714844 C 292.214844 94.863281 293.730469 95.050781 295.242188 95.273438 C 296.753906 95.5 298.261719 95.761719 299.757812 96.058594 C 301.257812 96.355469 302.75 96.691406 304.230469 97.0625 C 305.710938 97.433594 307.183594 97.839844 308.648438 98.285156 C 310.109375 98.726562 311.558594 99.207031 313 99.722656 C 314.4375 100.238281 315.863281 100.785156 317.277344 101.371094 C 318.6875 101.957031 320.082031 102.574219 321.464844 103.230469 C 322.847656 103.882812 324.210938 104.570312 325.558594 105.289062 C 326.90625 106.011719 328.234375 106.761719 329.546875 107.546875 C 330.859375 108.335938 332.148438 109.152344 333.417969 110 C 334.691406 110.847656 335.9375 111.730469 337.164062 112.640625 C 338.394531 113.550781 339.597656 114.488281 340.777344 115.460938 C 341.960938 116.429688 343.117188 117.425781 344.25 118.453125 C 345.382812 119.480469 346.488281 120.53125 347.570312 121.613281 C 348.648438 122.695312 349.703125 123.800781 350.730469 124.933594 C 351.753906 126.066406 352.753906 127.222656 353.722656 128.402344 C 354.691406 129.582031 355.632812 130.789062 356.542969 132.015625 C 357.453125 133.242188 358.332031 134.492188 359.179688 135.761719 C 360.03125 137.035156 360.847656 138.324219 361.632812 139.636719 C 362.417969 140.945312 363.171875 142.273438 363.890625 143.621094 C 364.613281 144.96875 365.300781 146.335938 365.953125 147.714844 C 366.605469 149.097656 367.226562 150.496094 367.808594 151.90625 C 368.394531 153.316406 368.945312 154.742188 369.460938 156.183594 C 369.972656 157.621094 370.453125 159.070312 370.898438 160.535156 C 371.339844 161.996094 371.75 163.46875 372.121094 164.953125 C 372.492188 166.433594 372.824219 167.925781 373.125 169.421875 C 373.421875 170.921875 373.683594 172.425781 373.90625 173.9375 C 374.132812 175.449219 374.320312 176.964844 374.46875 178.488281 C 374.617188 180.007812 374.730469 181.53125 374.804688 183.058594 C 374.878906 184.585938 374.917969 186.113281 374.917969 187.640625 C 374.917969 189.167969 374.878906 190.695312 374.804688 192.222656 C 374.730469 193.746094 374.617188 195.269531 374.46875 196.792969 C 374.320312 198.3125 374.132812 199.828125 373.90625 201.339844 C 373.683594 202.851562 373.421875 204.359375 373.125 205.855469 C 372.824219 207.355469 372.492188 208.847656 372.121094 210.328125 C 371.75 211.8125 371.339844 213.28125 370.898438 214.746094 C 370.453125 216.207031 369.972656 217.660156 369.460938 219.097656 C 368.945312 220.535156 368.394531 221.960938 367.808594 223.375 C 367.226562 224.785156 366.605469 226.179688 365.953125 227.5625 C 365.300781 228.945312 364.613281 230.308594 363.890625 231.65625 C 363.171875 233.003906 362.417969 234.332031 361.632812 235.644531 C 360.847656 236.957031 360.03125 238.246094 359.179688 239.515625 C 358.332031 240.789062 357.453125 242.035156 356.542969 243.261719 C 355.632812 244.492188 354.691406 245.695312 353.722656 246.875 C 352.753906 248.058594 351.753906 249.214844 350.730469 250.347656 C 349.703125 251.480469 348.648438 252.585938 347.570312 253.667969 C 346.488281 254.746094 345.382812 255.800781 344.25 256.828125 C 343.117188 257.851562 341.960938 258.851562 340.777344 259.820312 C 339.597656 260.789062 338.394531 261.730469 337.164062 262.640625 C 335.9375 263.550781 334.691406 264.429688 333.417969 265.277344 C 332.148438 266.128906 330.859375 266.945312 329.546875 267.730469 C 328.234375 268.515625 326.90625 269.269531 325.558594 269.988281 C 324.210938 270.710938 322.847656 271.398438 321.464844 272.050781 C 320.082031 272.703125 318.6875 273.324219 317.277344 273.90625 C 315.863281 274.492188 314.4375 275.042969 313 275.558594 C 311.5625 276.070312 310.109375 276.550781 308.648438 276.996094 C 307.183594 277.4375 305.710938 277.847656 304.230469 278.21875 C 302.75 278.589844 301.257812 278.921875 299.757812 279.222656 C 298.261719 279.519531 296.753906 279.78125 295.242188 280.003906 C 293.730469 280.230469 292.214844 280.417969 290.695312 280.566406 C 289.171875 280.714844 287.648438 280.828125 286.125 280.902344 C 284.597656 280.976562 283.070312 281.015625 281.542969 281.015625 Z M 281.542969 281.015625 "/></g><path style=" stroke:none;fill-rule:nonzero;fill:#b6ffa4;fill-opacity:1;" d="M 95.320312 270.570312 C 141.121094 270.570312 178.253906 233.441406 178.253906 187.640625 C 178.253906 141.839844 141.121094 104.710938 95.320312 104.710938 C 49.519531 104.710938 12.390625 141.839844 12.390625 187.640625 C 12.390625 233.441406 49.519531 270.570312 95.320312 270.570312 Z M 95.320312 270.570312 "/><g style="fill:#47dc55;fill-opacity:1;"><g transform="translate(187.499992, 198.98592)"><path style="stroke:none" d="M 12.234375 -11.8125 L 12.234375 -12.75 C 13.367188 -12.75 14.351562 -13.082031 15.1875 -13.75 C 16.03125 -14.414062 16.640625 -15.316406 17.015625 -16.453125 C 17.398438 -17.585938 17.476562 -18.859375 17.25 -20.265625 C 17.03125 -21.679688 16.429688 -23.144531 15.453125 -24.65625 C 14.828125 -25.632812 14.054688 -26.503906 13.140625 -27.265625 C 12.222656 -28.023438 11.28125 -28.617188 10.3125 -29.046875 C 9.351562 -29.472656 8.445312 -29.6875 7.59375 -29.6875 C 6.507812 -29.6875 5.726562 -29.503906 5.25 -29.140625 C 4.78125 -28.773438 4.503906 -28.351562 4.421875 -27.875 C 4.347656 -27.40625 4.390625 -26.96875 4.546875 -26.5625 C 4.773438 -25.988281 5.15625 -25.519531 5.6875 -25.15625 C 6.226562 -24.789062 6.820312 -24.425781 7.46875 -24.0625 C 8.113281 -23.695312 8.742188 -23.273438 9.359375 -22.796875 C 9.984375 -22.328125 10.488281 -21.707031 10.875 -20.9375 C 11.269531 -20.164062 11.46875 -19.160156 11.46875 -17.921875 L 11.46875 0 L 1.09375 0 L 1.09375 -22.1875 C 1.09375 -24.25 1.445312 -25.941406 2.15625 -27.265625 C 2.863281 -28.597656 3.78125 -29.640625 4.90625 -30.390625 C 6.03125 -31.148438 7.238281 -31.6875 8.53125 -32 C 9.832031 -32.320312 11.066406 -32.484375 12.234375 -32.484375 C 15.203125 -32.484375 17.847656 -32.078125 20.171875 -31.265625 C 22.492188 -30.460938 24.328125 -29.347656 25.671875 -27.921875 C 27.015625 -26.503906 27.6875 -24.863281 27.6875 -23 C 27.6875 -21.007812 27.078125 -19.164062 25.859375 -17.46875 C 24.648438 -15.78125 22.890625 -14.414062 20.578125 -13.375 C 18.273438 -12.332031 15.492188 -11.8125 12.234375 -11.8125 Z M 12.234375 -11.8125 "/></g></g><g style="fill:#47dc55;fill-opacity:1;"><g transform="translate(215.810747, 198.98592)"><path style="stroke:none" d="M 12.140625 -15.5 L 12.140625 -16.59375 C 13.785156 -16.59375 15.117188 -16.960938 16.140625 -17.703125 C 17.171875 -18.453125 17.6875 -19.503906 17.6875 -20.859375 C 17.6875 -22.222656 16.941406 -23.804688 15.453125 -25.609375 C 14.378906 -26.992188 13.113281 -28.019531 11.65625 -28.6875 C 10.207031 -29.351562 8.867188 -29.6875 7.640625 -29.6875 C 6.554688 -29.6875 5.773438 -29.503906 5.296875 -29.140625 C 4.828125 -28.773438 4.550781 -28.351562 4.46875 -27.875 C 4.394531 -27.40625 4.4375 -26.96875 4.59375 -26.5625 C 4.820312 -25.988281 5.203125 -25.519531 5.734375 -25.15625 C 6.273438 -24.789062 6.867188 -24.425781 7.515625 -24.0625 C 8.160156 -23.695312 8.785156 -23.273438 9.390625 -22.796875 C 9.992188 -22.328125 10.488281 -21.707031 10.875 -20.9375 C 11.269531 -20.164062 11.46875 -19.160156 11.46875 -17.921875 L 11.46875 0 L 1.09375 0 L 1.09375 -22.1875 C 1.09375 -24.25 1.445312 -25.941406 2.15625 -27.265625 C 2.863281 -28.597656 3.785156 -29.640625 4.921875 -30.390625 C 6.066406 -31.148438 7.285156 -31.6875 8.578125 -32 C 9.878906 -32.320312 11.113281 -32.484375 12.28125 -32.484375 C 15.25 -32.484375 17.882812 -32.160156 20.1875 -31.515625 C 22.5 -30.867188 24.328125 -29.910156 25.671875 -28.640625 C 27.015625 -27.378906 27.6875 -25.816406 27.6875 -23.953125 C 27.6875 -21.992188 26.9375 -20.378906 25.4375 -19.109375 C 23.9375 -17.847656 21.921875 -16.929688 19.390625 -16.359375 C 20.535156 -16.015625 21.660156 -15.320312 22.765625 -14.28125 C 23.585938 -13.457031 24.210938 -12.609375 24.640625 -11.734375 C 25.066406 -10.867188 25.390625 -10.03125 25.609375 -9.21875 C 25.828125 -8.414062 26.046875 -7.679688 26.265625 -7.015625 C 26.492188 -6.347656 26.8125 -5.8125 27.21875 -5.40625 C 28.039062 -4.582031 28.851562 -4.253906 29.65625 -4.421875 C 30.46875 -4.597656 31.238281 -5.066406 31.96875 -5.828125 L 32.71875 -5.078125 C 31.925781 -4.035156 30.929688 -3.078125 29.734375 -2.203125 C 28.535156 -1.335938 27.238281 -0.691406 25.84375 -0.265625 C 24.457031 0.160156 23.050781 0.242188 21.625 -0.015625 C 20.195312 -0.285156 18.867188 -1.039062 17.640625 -2.28125 C 16.816406 -3.101562 16.300781 -4.003906 16.09375 -4.984375 C 15.894531 -5.960938 15.847656 -6.941406 15.953125 -7.921875 C 16.066406 -8.898438 16.191406 -9.847656 16.328125 -10.765625 C 16.472656 -11.679688 16.488281 -12.492188 16.375 -13.203125 C 16.269531 -13.921875 15.910156 -14.484375 15.296875 -14.890625 C 14.679688 -15.296875 13.628906 -15.5 12.140625 -15.5 Z M 12.140625 -15.5 "/></g></g><g style="fill:#47dc55;fill-opacity:1;"><g transform="translate(244.832832, 198.98592)"><path style="stroke:none" d="M 11.46875 0 L 1.09375 0 L 1.09375 -32.15625 L 11.46875 -32.15625 Z M 11.46875 0 "/></g></g><g style="fill:#47dc55;fill-opacity:1;"><g transform="translate(257.399587, 198.98592)"><path style="stroke:none" d="M 16.640625 -32.15625 L 31.0625 -32.15625 C 31.0625 -30.445312 30.804688 -28.648438 30.296875 -26.765625 C 29.796875 -24.890625 29.140625 -23.035156 28.328125 -21.203125 C 27.523438 -19.367188 26.671875 -17.632812 25.765625 -16 C 24.867188 -14.375 24.023438 -12.960938 23.234375 -11.765625 C 22.316406 -10.367188 21.550781 -8.910156 20.9375 -7.390625 C 20.320312 -5.878906 19.851562 -4.472656 19.53125 -3.171875 C 19.21875 -1.878906 19.0625 -0.820312 19.0625 0 L 17.875 0 C 17.875 -1.613281 17.664062 -2.878906 17.25 -3.796875 C 16.84375 -4.710938 16.300781 -5.398438 15.625 -5.859375 C 14.945312 -6.316406 14.210938 -6.660156 13.421875 -6.890625 C 12.628906 -7.128906 11.835938 -7.359375 11.046875 -7.578125 C 10.253906 -7.804688 9.554688 -8.140625 8.953125 -8.578125 C 8.359375 -9.023438 7.90625 -9.691406 7.59375 -10.578125 C 6.613281 -13.609375 5.78125 -16.5 5.09375 -19.25 C 4.414062 -22 3.601562 -24.484375 2.65625 -26.703125 C 2.082031 -28.054688 1.28125 -28.804688 0.25 -28.953125 C -0.769531 -29.097656 -1.660156 -28.757812 -2.421875 -27.9375 L -3.21875 -28.828125 C -2.300781 -30.160156 -1.15625 -31.085938 0.21875 -31.609375 C 1.59375 -32.128906 2.894531 -32.390625 4.125 -32.390625 C 4.726562 -32.390625 5.488281 -32.273438 6.40625 -32.046875 C 7.320312 -31.828125 8.285156 -31.414062 9.296875 -30.8125 C 10.304688 -30.21875 11.269531 -29.359375 12.1875 -28.234375 C 13.101562 -27.117188 13.863281 -25.644531 14.46875 -23.8125 C 14.84375 -22.695312 15.164062 -21.726562 15.4375 -20.90625 C 15.707031 -20.09375 15.972656 -19.273438 16.234375 -18.453125 C 16.503906 -17.628906 16.816406 -16.613281 17.171875 -15.40625 C 17.609375 -13.957031 17.96875 -12.441406 18.25 -10.859375 C 18.539062 -9.273438 18.75 -7.519531 18.875 -5.59375 C 19.507812 -7.488281 20.441406 -9.5 21.671875 -11.625 C 22.648438 -13.257812 23.234375 -15.054688 23.421875 -17.015625 C 23.617188 -18.984375 23.476562 -20.945312 23 -22.90625 C 22.519531 -24.863281 21.734375 -26.65625 20.640625 -28.28125 C 19.554688 -29.914062 18.222656 -31.207031 16.640625 -32.15625 Z M 16.640625 -32.15625 "/></g></g><g style="fill:#47dc55;fill-opacity:1;"><g transform="translate(281.916602, 198.98592)"><path style="stroke:none" d="M 14.890625 0 L 0.859375 0 C 0.859375 -1.707031 1.109375 -3.492188 1.609375 -5.359375 C 2.117188 -7.222656 2.773438 -9.070312 3.578125 -10.90625 C 4.390625 -12.738281 5.242188 -14.460938 6.140625 -16.078125 C 7.046875 -17.691406 7.890625 -19.097656 8.671875 -20.296875 C 9.210938 -21.117188 9.796875 -21.941406 10.421875 -22.765625 C 11.054688 -23.585938 11.675781 -24.378906 12.28125 -25.140625 C 11.675781 -27.128906 11.085938 -28.628906 10.515625 -29.640625 C 9.953125 -30.648438 9.132812 -31.15625 8.0625 -31.15625 L 8.0625 -32.390625 C 10.46875 -32.390625 12.578125 -32.070312 14.390625 -31.4375 C 16.210938 -30.8125 17.78125 -29.972656 19.09375 -28.921875 C 20.40625 -27.878906 21.484375 -26.707031 22.328125 -25.40625 C 23.179688 -24.113281 23.832031 -22.804688 24.28125 -21.484375 C 25.289062 -18.441406 26.128906 -15.546875 26.796875 -12.796875 C 27.460938 -10.046875 28.269531 -7.566406 29.21875 -5.359375 C 29.8125 -3.992188 30.625 -3.238281 31.65625 -3.09375 C 32.6875 -2.957031 33.578125 -3.285156 34.328125 -4.078125 L 35.140625 -3.21875 C 34.191406 -1.894531 33.03125 -0.972656 31.65625 -0.453125 C 30.28125 0.0664062 28.992188 0.328125 27.796875 0.328125 C 26.054688 0.328125 24.476562 -0.0976562 23.0625 -0.953125 C 21.65625 -1.804688 20.460938 -2.921875 19.484375 -4.296875 C 18.503906 -5.671875 17.75 -7.128906 17.21875 -8.671875 L 10.140625 -8.671875 C 10.679688 -6.972656 11.367188 -5.363281 12.203125 -3.84375 C 13.046875 -2.320312 13.941406 -1.039062 14.890625 0 Z M 16.828125 -9.8125 C 16.140625 -12 15.453125 -14.320312 14.765625 -16.78125 C 14.085938 -19.25 13.398438 -21.59375 12.703125 -23.8125 C 12.421875 -23.394531 12.132812 -22.992188 11.84375 -22.609375 C 11.5625 -22.234375 11.28125 -21.828125 11 -21.390625 C 9.925781 -19.773438 9.34375 -17.945312 9.25 -15.90625 C 9.15625 -13.863281 9.359375 -11.832031 9.859375 -9.8125 Z M 16.828125 -9.8125 "/></g></g><g style="fill:#47dc55;fill-opacity:1;"><g transform="translate(306.907834, 198.98592)"><path style="stroke:none" d="M 3.984375 -19.25 C 3.097656 -19.976562 2.351562 -20.785156 1.75 -21.671875 C 1.15625 -22.554688 0.859375 -23.597656 0.859375 -24.796875 C 0.859375 -25.429688 0.96875 -26.175781 1.1875 -27.03125 C 1.40625 -27.882812 1.820312 -28.722656 2.4375 -29.546875 C 3.050781 -30.367188 3.910156 -31.054688 5.015625 -31.609375 C 6.128906 -32.160156 7.570312 -32.4375 9.34375 -32.4375 C 11.113281 -32.4375 12.734375 -32.179688 14.203125 -31.671875 C 15.671875 -31.171875 17.019531 -30.585938 18.25 -29.921875 C 19.488281 -29.253906 20.601562 -28.664062 21.59375 -28.15625 C 22.59375 -27.65625 23.503906 -27.40625 24.328125 -27.40625 C 25.429688 -27.40625 26.335938 -27.640625 27.046875 -28.109375 C 27.765625 -28.585938 28.296875 -29.179688 28.640625 -29.890625 C 28.992188 -30.609375 29.171875 -31.347656 29.171875 -32.109375 L 30.34375 -32.109375 C 30.34375 -29.921875 29.976562 -28.066406 29.25 -26.546875 C 28.53125 -25.035156 27.59375 -23.804688 26.4375 -22.859375 C 25.28125 -21.910156 24.046875 -21.222656 22.734375 -20.796875 C 21.421875 -20.367188 20.179688 -20.15625 19.015625 -20.15625 C 17.691406 -20.15625 16.457031 -20.285156 15.3125 -20.546875 C 14.175781 -20.816406 13.117188 -21.144531 12.140625 -21.53125 C 12.546875 -20.425781 13.097656 -19.617188 13.796875 -19.109375 C 14.492188 -18.609375 15.242188 -18.257812 16.046875 -18.0625 C 16.859375 -17.875 17.625 -17.691406 18.34375 -17.515625 C 19.070312 -17.347656 19.664062 -17.039062 20.125 -16.59375 C 20.582031 -16.15625 20.8125 -15.414062 20.8125 -14.375 L 20.8125 0 L 10.4375 0 L 10.4375 -22.234375 C 9.519531 -22.648438 8.695312 -23.015625 7.96875 -23.328125 C 7.238281 -23.648438 6.601562 -23.8125 6.0625 -23.8125 C 5.3125 -23.8125 4.773438 -23.554688 4.453125 -23.046875 C 4.140625 -22.535156 4.019531 -21.988281 4.09375 -21.40625 C 4.175781 -20.820312 4.425781 -20.375 4.84375 -20.0625 Z M 3.984375 -19.25 "/></g></g><g style="fill:#47dc55;fill-opacity:1;"><g transform="translate(333.179441, 198.98592)"><path style="stroke:none" d="M 20.53125 -17.3125 L 19.734375 -16.078125 L 15.359375 -16.078125 C 12.898438 -16.078125 11.320312 -15.242188 10.625 -13.578125 C 9.925781 -11.921875 10.304688 -9.6875 11.765625 -6.875 C 12.710938 -5.039062 13.859375 -3.726562 15.203125 -2.9375 C 16.546875 -2.144531 17.953125 -1.765625 19.421875 -1.796875 C 20.890625 -1.828125 22.316406 -2.191406 23.703125 -2.890625 C 25.097656 -3.585938 26.316406 -4.472656 27.359375 -5.546875 L 27.890625 -4.984375 C 26.941406 -3.941406 25.890625 -3.015625 24.734375 -2.203125 C 23.578125 -1.398438 22.234375 -0.773438 20.703125 -0.328125 C 19.171875 0.109375 17.328125 0.328125 15.171875 0.328125 C 12.203125 0.328125 9.648438 -0.046875 7.515625 -0.796875 C 5.378906 -1.554688 3.734375 -2.59375 2.578125 -3.90625 C 1.429688 -5.21875 0.859375 -6.742188 0.859375 -8.484375 C 0.859375 -10.035156 1.273438 -11.335938 2.109375 -12.390625 C 2.941406 -13.453125 4.085938 -14.320312 5.546875 -15 C 7.003906 -15.6875 8.664062 -16.1875 10.53125 -16.5 C 8.820312 -16.945312 7.347656 -17.644531 6.109375 -18.59375 C 4.878906 -19.539062 3.941406 -20.613281 3.296875 -21.8125 C 2.648438 -23.007812 2.300781 -24.234375 2.25 -25.484375 C 2.207031 -26.734375 2.515625 -27.878906 3.171875 -28.921875 C 3.835938 -29.972656 4.875 -30.820312 6.28125 -31.46875 C 7.6875 -32.113281 9.5 -32.4375 11.71875 -32.4375 C 12.882812 -32.4375 13.972656 -32.253906 14.984375 -31.890625 C 15.992188 -31.523438 16.914062 -31.097656 17.75 -30.609375 C 18.59375 -30.117188 19.367188 -29.691406 20.078125 -29.328125 C 20.796875 -28.960938 21.453125 -28.78125 22.046875 -28.78125 C 23.222656 -28.78125 23.988281 -29.085938 24.34375 -29.703125 C 24.707031 -30.328125 24.890625 -31.160156 24.890625 -32.203125 L 25.9375 -32.203125 C 26.125 -30.898438 26.144531 -29.5625 26 -28.1875 C 25.863281 -26.8125 25.507812 -25.539062 24.9375 -24.375 C 24.375 -23.207031 23.535156 -22.257812 22.421875 -21.53125 C 21.316406 -20.800781 19.878906 -20.4375 18.109375 -20.4375 C 16.941406 -20.4375 15.921875 -20.6875 15.046875 -21.1875 C 14.179688 -21.695312 13.414062 -22.335938 12.75 -23.109375 C 12.09375 -23.890625 11.484375 -24.679688 10.921875 -25.484375 C 10.367188 -26.296875 9.816406 -27 9.265625 -27.59375 C 8.710938 -28.195312 8.128906 -28.59375 7.515625 -28.78125 C 6.898438 -28.96875 6.179688 -28.8125 5.359375 -28.3125 C 4.722656 -27.925781 4.285156 -27.304688 4.046875 -26.453125 C 3.816406 -25.609375 3.832031 -24.660156 4.09375 -23.609375 C 4.363281 -22.566406 4.898438 -21.5625 5.703125 -20.59375 C 6.515625 -19.632812 7.628906 -18.847656 9.046875 -18.234375 C 10.472656 -17.617188 12.25 -17.3125 14.375 -17.3125 Z M 20.53125 -17.3125 "/></g></g></g></svg>