<svg xmlns="http://www.w3.org/2000/svg" xmlns:xlink="http://www.w3.org/1999/xlink" width="500" zoomAndPan="magnify" viewBox="0 0 375 374.999991" height="500" preserveAspectRatio="xMidYMid meet" version="1.2"><g id="0aae62c4bc"><path style=" stroke:none;fill-rule:nonzero;fill:#47dc55;fill-opacity:1;" d="M 187.5 77.125 C 152.125 77.125 123.25 105.875 123.25 141.25 C 123.25 176.75 152.125 205.5 187.5 205.5 C 222.875 205.5 251.75 176.75 251.75 141.25 C 251.75 105.875 222.875 77.125 187.5 77.125 Z M 187.5 77.125 "/><path style=" stroke:none;fill-rule:nonzero;fill:#47dc55;fill-opacity:1;" d="M 187.375 0.125 C 84.125 0.125 0 84.125 0 187.5 C 0 245 26.125 296.5 67 330.875 C 67 330.875 67 330.875 67 331 C 99.625 358.375 141.625 374.875 187.375 374.875 C 252.625 374.875 312.125 341.875 346.625 286.5 C 365.25 256.75 375 222.625 375 187.5 C 375 152.375 365.25 118.125 346.625 88.5 C 312.125 33.125 252.625 0.125 187.375 0.125 Z M 325.5 273.25 C 319.5 282.875 312.5 291.375 304.875 299.375 C 285.875 260.375 245.5 234.375 200.875 234.375 L 174.125 234.375 C 143.125 234.375 114 246.5 92.125 268.375 C 83 277.375 75.75 288 70.125 299.5 C 42.25 270.375 25 231 25 187.5 C 25 98 97.875 25.125 187.375 25.125 C 244 25.125 295.5 53.75 325.5 101.75 C 341.5 127.5 350 157.125 350 187.5 C 350 217.875 341.5 247.5 325.5 273.25 Z M 325.5 273.25 "/></g></svg>